#N canvas 813 324 832 595 10;
#X obj 136 538 outlet~;
#N canvas 656 257 993 504 choosegrain 0;
#X obj 38 172 spigot;
#X obj 130 80 loadbang;
#X obj 38 225 f 1;
#X msg 171 173 0;
#X msg 130 141 1;
#X obj 39 274 sel 1;
#X msg 82 226 0;
#X obj 39 294 t b b b b;
#X obj 214 363 t b f;
#X obj 214 387 delay;
#X msg 82 203 1;
#X obj 39 342 outlet;
#X obj 259 388 outlet;
#X obj 214 337 snapshot~;
#X text 539 41 Sélection d'une instance libre pour générer le grain
courant.;
#X text 524 177 Une instance à la fois \, le bang "masterclock" vérifie
si l'instance est libre (1) ou non (0) \, c'est-à-dire en train de
jouer un grain.;
#X text 512 271 La première instance libre détectée fait plusieurs
choses:;
#X text 529 295 1 - Ferme toutes les portes ([s closegate]) pour que
le "masterclock" arrête de chercher une instance.;
#X text 524 102 Le metro principal commence par ouvrir la porte de
toutes les instances avec un bang dans le [s opengate]. Ensuite il
envoit un bang dans [s masterclock]. À ce moment la porte de chaque
instance est ouverte.;
#X text 529 325 2 - Indique que l'instance est active (0).;
#X text 529 349 3 - Pige une durée dans le signal audio [r~ graindur]
\, l'envoit en sortie pour calculer les lignes de lecture et lance
le délai qui indiquera que l'instance est libre après la durée du
grain.;
#X text 530 409 4 - Finalement \, envoit un bang pour activer la lecture
de l'enveloppe et du grain.;
#X obj 38 100 r \$2-masterclock;
#X obj 143 120 r \$2-opengate;
#X obj 171 152 r \$2-closegate;
#X obj 90 341 s \$2-closegate;
#X obj 214 313 r~ \$2-graindur;
#X connect 0 0 2 0;
#X connect 1 0 4 0;
#X connect 2 0 5 0;
#X connect 3 0 0 1;
#X connect 4 0 0 1;
#X connect 5 0 7 0;
#X connect 6 0 2 1;
#X connect 7 0 11 0;
#X connect 7 1 13 0;
#X connect 7 2 6 0;
#X connect 7 3 25 0;
#X connect 8 0 9 0;
#X connect 8 1 9 1;
#X connect 8 1 12 0;
#X connect 9 0 10 0;
#X connect 10 0 2 1;
#X connect 13 0 8 0;
#X connect 22 0 0 0;
#X connect 23 0 4 0;
#X connect 24 0 3 0;
#X connect 26 0 13 0;
#X restore 284 59 pd choosegrain;
#X obj 137 435 *~;
#X obj 219 302 vline~;
#X obj 471 140 expr $f1 * 0.001 * $f2;
#X obj 622 96 loadbang;
#X obj 622 116 samplerate~;
#X floatatom 471 162 9 0 0 0 - - -, f 9;
#X text 538 161 dur in samples;
#X obj 253 234 +;
#X msg 219 280 \$1 \, \$2 \$3;
#X obj 220 257 pack f f f;
#X obj 220 234 f;
#X obj 275 188 snapshot~;
#X obj 284 79 t b b;
#X obj 505 225 snapshot~;
#X obj 473 198 t f b;
#X obj 473 247 / 1;
#X obj 307 538 outlet~;
#X obj 473 350 snapshot~;
#N canvas 454 531 566 197 panner 0;
#X obj 49 47 inlet~;
#X obj 49 107 expr~ $v1 * cos(3.14159 / 2 * $f2);
#X obj 299 107 expr~ $v1 * sin(3.14159 / 2 * $f2);
#X obj 284 48 inlet;
#X obj 49 134 outlet~;
#X obj 299 134 outlet~;
#X connect 0 0 1 0;
#X connect 0 0 2 0;
#X connect 1 0 4 0;
#X connect 2 0 5 0;
#X connect 3 0 1 1;
#X connect 3 0 2 1;
#X restore 306 499 pd panner;
#N canvas 3 83 587 696 envelope 0;
#X obj 42 182 tabread4~ hanning;
#X obj 42 156 vline~;
#X msg 42 132 0 \, 511 \$1;
#X obj 43 111 f;
#X obj 43 52 inlet;
#X obj 58 82 inlet;
#X obj 42 206 outlet~;
#X text 5 5 Lecture de l'enveloppe du grain.;
#X text 94 82 Durée en ms.;
#X text 80 51 Go!;
#X connect 0 0 6 0;
#X connect 1 0 0 0;
#X connect 2 0 1 0;
#X connect 3 0 2 0;
#X connect 4 0 3 0;
#X connect 5 0 3 1;
#X restore 83 247 pd envelope;
#N canvas 3 83 1036 776 filter 0;
#X obj 35 47 inlet~;
#X obj 35 272 *~ 1;
#X obj 145 272 *~ 0;
#X obj 146 192 bp~ 1000 1;
#X obj 35 310 outlet~;
#X obj 358 43 inlet;
#X obj 358 200 f;
#X obj 56 249 expr 1 - $f1;
#X obj 151 125 snapshot~;
#X obj 265 125 snapshot~;
#X obj 151 43 r~ \$2-grainfreq;
#X obj 265 43 r~ \$2-grainQ;
#X obj 373 178 r \$2-grainfilter;
#X connect 0 0 1 0;
#X connect 0 0 3 0;
#X connect 1 0 4 0;
#X connect 2 0 4 0;
#X connect 3 0 2 0;
#X connect 5 0 6 0;
#X connect 5 0 9 0;
#X connect 5 0 8 0;
#X connect 6 0 7 0;
#X connect 6 0 2 1;
#X connect 7 0 1 1;
#X connect 8 0 3 1;
#X connect 9 0 3 2;
#X connect 10 0 8 0;
#X connect 11 0 9 0;
#X connect 12 0 6 1;
#X restore 136 460 pd filter;
#X msg 471 279 bang;
#X obj 292 165 r~ \$2-grainpos;
#X obj 524 199 r~ \$2-grainpit;
#X obj 480 325 r~ \$2-grainpan;
#X obj 308 438 *~;
#N canvas 3 83 1036 776 filter 0;
#X obj 35 47 inlet~;
#X obj 35 272 *~ 1;
#X obj 145 272 *~ 0;
#X obj 146 192 bp~ 1000 1;
#X obj 35 310 outlet~;
#X obj 358 43 inlet;
#X obj 358 200 f;
#X obj 56 249 expr 1 - $f1;
#X obj 151 125 snapshot~;
#X obj 265 125 snapshot~;
#X obj 151 43 r~ \$2-grainfreq;
#X obj 265 43 r~ \$2-grainQ;
#X obj 373 178 r \$2-grainfilter;
#X connect 0 0 1 0;
#X connect 0 0 3 0;
#X connect 1 0 4 0;
#X connect 2 0 4 0;
#X connect 3 0 2 0;
#X connect 5 0 6 0;
#X connect 5 0 9 0;
#X connect 5 0 8 0;
#X connect 6 0 7 0;
#X connect 6 0 2 1;
#X connect 7 0 1 1;
#X connect 8 0 3 1;
#X connect 9 0 3 2;
#X connect 10 0 8 0;
#X connect 11 0 9 0;
#X connect 12 0 6 1;
#X restore 307 463 pd filter;
#X obj 155 395 tabread4~ \$2-sourceL;
#X obj 325 398 tabread4~ \$2-sourceR;
#X text 17 24 version stereo de grainclone~;
#N canvas 454 531 566 197 panner 0;
#X obj 49 47 inlet~;
#X obj 49 107 expr~ $v1 * cos(3.14159 / 2 * $f2);
#X obj 299 107 expr~ $v1 * sin(3.14159 / 2 * $f2);
#X obj 284 48 inlet;
#X obj 49 134 outlet~;
#X obj 299 134 outlet~;
#X connect 0 0 1 0;
#X connect 0 0 2 0;
#X connect 1 0 4 0;
#X connect 2 0 5 0;
#X connect 3 0 1 1;
#X connect 3 0 2 1;
#X restore 137 503 pd panner;
#X connect 1 0 14 0;
#X connect 1 1 4 0;
#X connect 1 1 16 0;
#X connect 1 1 21 1;
#X connect 2 0 22 0;
#X connect 3 0 29 0;
#X connect 3 0 30 0;
#X connect 4 0 7 0;
#X connect 5 0 6 0;
#X connect 6 0 4 1;
#X connect 7 0 9 1;
#X connect 9 0 11 1;
#X connect 10 0 3 0;
#X connect 11 0 10 0;
#X connect 12 0 11 0;
#X connect 13 0 9 0;
#X connect 13 0 12 1;
#X connect 14 0 12 0;
#X connect 14 0 21 0;
#X connect 14 1 13 0;
#X connect 14 1 19 0;
#X connect 14 1 23 0;
#X connect 15 0 17 1;
#X connect 16 0 17 0;
#X connect 16 1 15 0;
#X connect 17 0 11 2;
#X connect 19 0 20 1;
#X connect 19 0 32 1;
#X connect 20 0 0 0;
#X connect 20 1 18 0;
#X connect 21 0 2 0;
#X connect 21 0 27 0;
#X connect 22 0 32 0;
#X connect 23 0 22 1;
#X connect 23 0 28 1;
#X connect 24 0 13 0;
#X connect 25 0 15 0;
#X connect 26 0 19 0;
#X connect 27 0 28 0;
#X connect 28 0 20 0;
#X connect 29 0 2 1;
#X connect 30 0 27 1;
#X connect 32 0 0 0;
#X connect 32 1 18 0;
