#N canvas 666 129 1195 728 10;
#X obj 358 152 tgl 15 0 empty GranTog empty 17 7 0 10 -262144 -1 -1
1 1;
#X obj 358 270 metro 1000;
#X obj 357 293 t b b b;
#X floatatom 415 249 5 0 0 0 - - -, f 5;
#N canvas 0 50 450 250 (subpatch) 0;
#X array \$1-source 542790 float 2;
#X coords 0 1 542790 -1 128 64 1 0 0;
#X restore 150 378 graph;
#X msg 124 150 bang;
#X obj 124 172 openpanel;
#X obj 144 279 soundfiler;
#X floatatom 405 129 5 0 0 0 - density1 -, f 5;
#X text 323 109 density per second;
#X obj 405 184 expr 1 / $f1 * 1000;
#X obj 721 69 hsl 128 15 0 1 0 1 empty position1 empty -2 -8 0 10 -262144
-1 -1 12000 0;
#X obj 805 240 *;
#X floatatom 805 261 7 0 0 0 - - -, f 7;
#X obj 805 362 randomize~;
#X floatatom 872 341 5 0 100 0 - position_rnd1 -, f 5;
#X floatatom 600 166 10 0 0 0 - duration1 -, f 10;
#X obj 630 244 sig~;
#X obj 630 265 randomize~;
#X floatatom 702 243 5 0 100 0 - duration_rnd1 -, f 5;
#X floatatom 976 170 8 0 0 0 - pitch1 -, f 8;
#X obj 976 192 sig~;
#X obj 976 214 randomize~;
#X floatatom 1065 173 5 0 0 0 - pitch_rnd1 -, f 5;
#X obj 375 223 randomize;
#X floatatom 451 209 5 0 100 0 - density_rnd1 -, f 5;
#X obj 805 310 line~;
#X floatatom 865 266 5 0 0 0 - - -, f 5;
#X text 599 150 grain dur;
#X text 974 152 grain pitch;
#X text 786 48 grain pos;
#X floatatom 990 314 10 0 1 0 - pan1 -, f 10;
#X obj 990 333 sig~;
#X obj 990 357 randomize~;
#X floatatom 1057 336 5 0 100 0 - pan_rnd1 -, f 5;
#X text 988 296 grain pan;
#X floatatom 688 548 10 0 1 0 - - -, f 10;
#X obj 688 569 sig~;
#X obj 688 591 randomize~;
#X floatatom 745 571 5 0 100 0 - filter_freq_rnd1 -, f 5;
#X obj 613 444 hsl 128 15 0 1 0 1 empty filter_freq1 empty -2 -8 0
10 -262144 -1 -1 12200 0;
#X obj 610 544 pow 4;
#X obj 610 563 * 10000;
#X obj 610 583 + 20;
#X floatatom 810 467 10 1 100 0 - filter_q1 -, f 10;
#X obj 810 487 sig~;
#X obj 810 509 randomize~;
#X floatatom 867 490 5 0 100 0 - filter_q_rnd1 -, f 5;
#X obj 568 505 tgl 15 0 empty empty empty 17 7 0 10 -262144 -1 -1 1
1;
#N canvas 117 137 829 327 pan_algos 0;
#X obj 101 51 hsl 128 15 0 1 0 0 empty empty empty -2 -8 0 10 -262144
-1 -1 0 1;
#X obj 37 92 expr 1 - $f1;
#X floatatom 165 99 5 0 0 0 - - -, f 5;
#X obj 64 149 expr $f1*$f1 + $f2*$f2;
#X obj 165 118 t b f;
#X floatatom 64 168 5 0 0 0 - - -, f 5;
#X obj 327 45 hsl 128 15 0 1 0 0 empty empty empty -2 -8 0 10 -262144
-1 -1 0 1;
#X obj 289 147 expr $f1*$f1 + $f2*$f2;
#X obj 390 116 t b f;
#X floatatom 289 166 5 0 0 0 - - -, f 5;
#X obj 262 90 expr sqrt(1 - $f1);
#X obj 390 94 sqrt;
#X obj 567 45 hsl 128 15 0 1 0 0 empty empty empty -2 -8 0 10 -262144
-1 -1 0 1;
#X obj 518 163 expr $f1*$f1 + $f2*$f2;
#X obj 620 132 t b f;
#X floatatom 518 182 5 0 0 0 - - -, f 5;
#X obj 504 79 expr cos($f1 * 3.14159 / 2);
#X obj 606 102 expr sin($f1 * 3.14159 / 2);
#X floatatom 685 130 5 0 0 0 - - -, f 5;
#X floatatom 526 102 5 0 0 0 - - -, f 5;
#X floatatom 436 112 5 0 0 0 - - -, f 5;
#X floatatom 294 114 5 0 0 0 - - -, f 5;
#X floatatom 65 116 5 0 0 0 - - -, f 5;
#X text 111 29 0 ---- 1;
#X text 340 28 0 ---- 1;
#X text 573 26 0 ---- 1;
#X connect 0 0 1 0;
#X connect 0 0 2 0;
#X connect 1 0 3 0;
#X connect 1 0 22 0;
#X connect 2 0 4 0;
#X connect 3 0 5 0;
#X connect 4 0 3 0;
#X connect 4 1 3 1;
#X connect 6 0 10 0;
#X connect 6 0 11 0;
#X connect 7 0 9 0;
#X connect 8 0 7 0;
#X connect 8 1 7 1;
#X connect 10 0 7 0;
#X connect 10 0 21 0;
#X connect 11 0 8 0;
#X connect 11 0 20 0;
#X connect 12 0 16 0;
#X connect 12 0 17 0;
#X connect 13 0 15 0;
#X connect 14 0 13 0;
#X connect 14 1 13 1;
#X connect 16 0 13 0;
#X connect 16 0 19 0;
#X connect 17 0 14 0;
#X connect 17 0 18 0;
#X restore 148 326 pd pan_algos;
#X text 355 137 GO!;
#X text 608 426 grain filter freq;
#X text 808 450 grain filter Q;
#X text 511 483 filter on/off;
#X text 73 24 Granulateur avec contrôle sur tous les paramètres.
;
#X text 120 134 charger un son;
#X obj 718 24 tgl 15 0 empty empty empty 17 7 0 10 -262144 -1 -1 0
1;
#X floatatom 751 21 5 0 0 0 - - -, f 5;
#X obj 805 285 pack f 10;
#X floatatom 731 84 5 0 0 0 - - -, f 5;
#X obj 144 298 s \$1-sourcesize;
#X obj 357 339 s \$1-masterclock;
#X obj 376 317 s \$1-opengate;
#X obj 631 287 s~ \$1-graindur;
#X obj 823 218 r \$1-sourcesize;
#X obj 805 385 s~ \$1-grainpos;
#X obj 976 235 s~ \$1-grainpit;
#X obj 991 379 s~ \$1-grainpan;
#X obj 568 612 s \$1-grainfilter;
#X obj 688 612 s~ \$1-grainfreq;
#X obj 810 530 s~ \$1-grainQ;
#X obj 229 172 loadbang;
#X floatatom 229 216 5 0 0 0 - - -, f 5;
#X msg 144 260 read -resize \$1 \$2-source;
#X obj 144 230 pack s f;
#X obj 229 194 f \$1;
#X obj 220 494 clone grainclone~ 200 \$1;
#X obj 219 574 throw~ OutL;
#X obj 310 574 throw~ OutR;
#X obj 219 547 *~;
#X obj 310 548 *~;
#X obj 403 531 line~;
#X msg 403 509 \$1 20;
#X obj 458 448 vsl 15 128 0 1 0 0 empty empty empty 0 -9 0 10 -262144
-1 -1 0 1;
#X obj 402 426 r snsr\$1;
#X obj 402 449 / 300;
#X floatatom 402 472 5 0 0 0 - - -, f 5;
#N canvas 284 174 421 412 init 0;
#X obj 93 11 loadbang;
#X obj 129 78 outlet;
#X obj 129 36 delay 5;
#X obj 93 112 delay 10;
#X obj 129 57 symbol StetsonSamp\$1.wav;
#X msg 93 146 \; density1 5 \; \; density_rnd1 2 \; \; duration1 300
\; \; duration_rnd1 1 \; \; position1 0.95 \; \; position_rnd1 1 \;
\; pitch1 1 \; \; pitch_rnd1 6 \; \; pan1 0.5 \; \; pan_rnd1 35 \;
\; filter_freq1 0.95 \; \; filter_freq_rnd1 30 \; \; filter_q1 2.5
\; \; filter_q_rnd1 10 \;;
#X connect 0 0 2 0;
#X connect 0 0 3 0;
#X connect 2 0 4 0;
#X connect 3 0 5 0;
#X connect 4 0 1 0;
#X restore 147 199 pd init \$1;
#N canvas 626 264 729 515 lfo 0;
#X obj 42 34 inlet;
#X obj 119 34 inlet;
#X obj 119 75 osc~ 0.1;
#X obj 119 146 snapshot~;
#X obj 42 75 metro 10;
#X obj 119 165 outlet;
#X obj 119 114 +~ 0.5;
#X obj 119 94 *~ 0.5;
#X connect 0 0 4 0;
#X connect 1 0 2 0;
#X connect 2 0 7 0;
#X connect 3 0 5 0;
#X connect 4 0 3 0;
#X connect 6 0 3 0;
#X connect 7 0 6 0;
#X restore 718 43 pd lfo \$1;
#X obj 1111 150 r snsr2;
#X obj 1111 171 / 60;
#X obj 1086 215 +;
#X obj 1097 194 t b f;
#X obj 895 156 / 540;
#X obj 872 177 t b f;
#X obj 805 194 -;
#X obj 529 459 loadbang;
#X obj 895 134 r snsr3;
#X obj 668 464 r snsr3;
#X obj 668 484 / 700;
#X obj 610 523 -;
#X obj 621 501 t b f;
#X obj 683 151 r snsr2;
#X obj 683 174 * 0.85;
#X obj 639 198 t b f;
#X obj 463 102 r snsr2;
#X obj 405 160 +;
#X obj 463 123 / 14;
#X obj 463 143 t b f;
#X obj 630 220 +;
#X floatatom 763 223 5 0 0 0 - - -, f 5;
#X obj 776 156 -;
#X obj 816 139 t b f;
#X obj 839 96 r snsr2;
#X obj 839 118 / 1200;
#X connect 0 0 1 0;
#X connect 1 0 2 0;
#X connect 2 0 61 0;
#X connect 2 1 62 0;
#X connect 2 2 24 0;
#X connect 3 0 1 1;
#X connect 5 0 6 0;
#X connect 6 0 74 0;
#X connect 7 0 60 0;
#X connect 8 0 106 0;
#X connect 10 0 24 1;
#X connect 11 0 59 0;
#X connect 11 0 111 0;
#X connect 12 0 13 0;
#X connect 13 0 58 0;
#X connect 14 0 65 0;
#X connect 15 0 14 1;
#X connect 16 0 109 0;
#X connect 17 0 18 0;
#X connect 18 0 63 0;
#X connect 19 0 18 1;
#X connect 20 0 21 0;
#X connect 21 0 22 0;
#X connect 22 0 66 0;
#X connect 23 0 91 0;
#X connect 24 0 3 0;
#X connect 25 0 24 2;
#X connect 26 0 14 0;
#X connect 27 0 58 1;
#X connect 31 0 32 0;
#X connect 32 0 33 0;
#X connect 33 0 67 0;
#X connect 34 0 33 1;
#X connect 36 0 37 0;
#X connect 37 0 38 0;
#X connect 38 0 69 0;
#X connect 39 0 38 1;
#X connect 40 0 100 0;
#X connect 41 0 42 0;
#X connect 42 0 43 0;
#X connect 43 0 36 0;
#X connect 44 0 45 0;
#X connect 45 0 46 0;
#X connect 46 0 70 0;
#X connect 47 0 46 1;
#X connect 48 0 68 0;
#X connect 56 0 88 0;
#X connect 57 0 88 1;
#X connect 58 0 26 0;
#X connect 64 0 12 1;
#X connect 71 0 75 0;
#X connect 72 0 74 1;
#X connect 73 0 7 0;
#X connect 74 0 73 0;
#X connect 75 0 72 0;
#X connect 76 0 79 0;
#X connect 76 1 80 0;
#X connect 79 0 77 0;
#X connect 80 0 78 0;
#X connect 81 0 79 1;
#X connect 81 0 80 1;
#X connect 82 0 81 0;
#X connect 83 0 82 0;
#X connect 84 0 85 0;
#X connect 85 0 86 0;
#X connect 86 0 83 0;
#X connect 87 0 74 0;
#X connect 88 0 11 0;
#X connect 89 0 90 0;
#X connect 90 0 92 0;
#X connect 91 0 22 1;
#X connect 92 0 91 0;
#X connect 92 1 91 1;
#X connect 93 0 94 0;
#X connect 94 0 95 0;
#X connect 94 1 95 1;
#X connect 95 0 12 0;
#X connect 95 0 110 0;
#X connect 96 0 48 0;
#X connect 97 0 93 0;
#X connect 98 0 99 0;
#X connect 99 0 101 0;
#X connect 100 0 41 0;
#X connect 101 0 100 0;
#X connect 101 1 100 1;
#X connect 102 0 103 0;
#X connect 103 0 104 0;
#X connect 104 0 109 0;
#X connect 104 1 109 1;
#X connect 105 0 107 0;
#X connect 106 0 10 0;
#X connect 107 0 108 0;
#X connect 108 0 106 0;
#X connect 108 1 106 1;
#X connect 109 0 17 0;
#X connect 111 0 95 0;
#X connect 112 0 111 0;
#X connect 112 1 111 1;
#X connect 113 0 114 0;
#X connect 114 0 112 0;
