#N canvas 709 115 1195 728 10;
#X obj 396 157 tgl 15 0 empty GranTog empty 17 7 0 10 -262144 -1 -1
0 1;
#X obj 396 275 metro 1000;
#X obj 395 298 t b b b;
#X floatatom 453 254 5 0 0 0 - - -, f 5;
#N canvas 0 50 450 250 (subpatch) 0;
#X array \$1-sourceR 2.11734e+006 float 2;
#X coords 0 1 2.11734e+006 -1 128 64 1 0 0;
#X restore 79 418 graph;
#X msg 61 112 bang;
#X obj 61 134 openpanel;
#X obj 81 241 soundfiler;
#X floatatom 443 99 5 0 0 0 - density2 -, f 5;
#X text 402 80 density per second;
#X obj 443 188 expr 1 / $f1 * 1000;
#X obj 808 160 hsl 128 15 0 1 0 1 empty position2 empty -2 -8 0 10
-262144 -1 -1 0 0;
#X obj 805 240 *;
#X floatatom 805 261 7 0 0 0 - - -, f 7;
#X obj 805 362 randomize~;
#X floatatom 872 341 5 0 100 0 - position_rnd2 -, f 5;
#X floatatom 642 130 10 0 0 0 - duration2 -, f 10;
#X obj 642 154 sig~;
#X obj 642 175 randomize~;
#X floatatom 699 155 5 0 100 0 - duration_rnd2 -, f 5;
#X floatatom 976 80 10 0 0 0 - pitch2 -, f 10;
#X obj 976 192 sig~;
#X obj 976 214 randomize~;
#X floatatom 1065 173 5 0 0 0 - pitch_rnd2 -, f 5;
#X obj 413 228 randomize;
#X floatatom 485 214 5 0 100 0 - density_rnd2 -, f 5;
#X obj 805 310 line~;
#X floatatom 865 266 5 0 0 0 - - -, f 5;
#X text 641 114 grain dur;
#X text 1022 52 grain pitch;
#X text 873 139 grain pos;
#X floatatom 990 314 10 0 1 0 - pan2 -, f 10;
#X obj 990 333 sig~;
#X obj 990 357 randomize~;
#X floatatom 1057 336 5 0 100 0 - pan_rnd2 -, f 5;
#X text 988 296 grain pan;
#X floatatom 729 577 10 0 1 0 - - -, f 10;
#X obj 729 598 sig~;
#X obj 729 620 randomize~;
#X floatatom 786 600 5 0 100 0 - filter_freq_rnd2 -, f 5;
#X obj 654 459 hsl 128 15 0 1 0 1 empty filter_freq2 empty -2 -8 0
10 -262144 -1 -1 12700 0;
#X obj 651 573 pow 4;
#X obj 651 592 * 10000;
#X obj 651 612 + 20;
#X floatatom 857 496 10 1 100 0 - filter_q2 -, f 10;
#X obj 857 516 sig~;
#X obj 857 538 randomize~;
#X floatatom 914 519 5 0 100 0 - filter_q_rnd2 -, f 5;
#X obj 598 535 tgl 15 0 empty empty empty 17 7 0 10 -262144 -1 -1 1
1;
#N canvas 117 137 829 327 pan_algos 0;
#X obj 101 51 hsl 128 15 0 1 0 0 empty empty empty -2 -8 0 10 -262144
-1 -1 0 1;
#X obj 37 92 expr 1 - $f1;
#X floatatom 165 99 5 0 0 0 - - -, f 5;
#X obj 64 149 expr $f1*$f1 + $f2*$f2;
#X obj 165 118 t b f;
#X floatatom 64 168 5 0 0 0 - - -, f 5;
#X obj 327 45 hsl 128 15 0 1 0 0 empty empty empty -2 -8 0 10 -262144
-1 -1 0 1;
#X obj 289 147 expr $f1*$f1 + $f2*$f2;
#X obj 390 116 t b f;
#X floatatom 289 166 5 0 0 0 - - -, f 5;
#X obj 262 90 expr sqrt(1 - $f1);
#X obj 390 94 sqrt;
#X obj 567 45 hsl 128 15 0 1 0 0 empty empty empty -2 -8 0 10 -262144
-1 -1 0 1;
#X obj 518 163 expr $f1*$f1 + $f2*$f2;
#X obj 620 132 t b f;
#X floatatom 518 182 5 0 0 0 - - -, f 5;
#X obj 504 79 expr cos($f1 * 3.14159 / 2);
#X obj 606 102 expr sin($f1 * 3.14159 / 2);
#X floatatom 685 130 5 0 0 0 - - -, f 5;
#X floatatom 526 102 5 0 0 0 - - -, f 5;
#X floatatom 436 112 5 0 0 0 - - -, f 5;
#X floatatom 294 114 5 0 0 0 - - -, f 5;
#X floatatom 65 116 5 0 0 0 - - -, f 5;
#X text 111 29 0 ---- 1;
#X text 340 28 0 ---- 1;
#X text 573 26 0 ---- 1;
#X connect 0 0 1 0;
#X connect 0 0 2 0;
#X connect 1 0 3 0;
#X connect 1 0 22 0;
#X connect 2 0 4 0;
#X connect 3 0 5 0;
#X connect 4 0 3 0;
#X connect 4 1 3 1;
#X connect 6 0 10 0;
#X connect 6 0 11 0;
#X connect 7 0 9 0;
#X connect 8 0 7 0;
#X connect 8 1 7 1;
#X connect 10 0 7 0;
#X connect 10 0 21 0;
#X connect 11 0 8 0;
#X connect 11 0 20 0;
#X connect 12 0 16 0;
#X connect 12 0 17 0;
#X connect 13 0 15 0;
#X connect 14 0 13 0;
#X connect 14 1 13 1;
#X connect 16 0 13 0;
#X connect 16 0 19 0;
#X connect 17 0 14 0;
#X connect 17 0 18 0;
#X restore 85 288 pd pan_algos;
#X text 393 142 GO!;
#X text 649 441 grain filter freq;
#X text 855 479 grain filter Q;
#X text 548 517 filter on/off;
#X text 57 95 charger un son;
#X obj 805 115 tgl 15 0 empty empty empty 17 7 0 10 -262144 -1 -1 1
1;
#X floatatom 838 112 5 0 0 0 - - -, f 5;
#X obj 805 285 pack f 10;
#X floatatom 814 176 5 0 0 0 - - -, f 5;
#X obj 81 260 s \$1-sourcesize;
#X obj 395 344 s \$1-masterclock;
#X obj 414 322 s \$1-opengate;
#X obj 643 197 s~ \$1-graindur;
#X obj 823 218 r \$1-sourcesize;
#X obj 805 385 s~ \$1-grainpos;
#X obj 976 235 s~ \$1-grainpit;
#X obj 991 379 s~ \$1-grainpan;
#X obj 609 641 s \$1-grainfilter;
#X obj 729 641 s~ \$1-grainfreq;
#X obj 857 559 s~ \$1-grainQ;
#X obj 166 134 loadbang;
#X floatatom 166 178 5 0 0 0 - - -, f 5;
#X obj 81 192 pack s f;
#X obj 166 156 f \$1;
#X obj 238 637 throw~ OutL;
#X obj 329 637 throw~ OutR;
#X obj 238 610 *~;
#X obj 329 611 *~;
#X obj 422 594 line~;
#X msg 422 572 \$1 20;
#X obj 477 505 vsl 15 128 0 1 0 0 empty empty empty 0 -9 0 10 -262144
-1 -1 0 1;
#X obj 343 423 r snsr\$1;
#X floatatom 343 467 5 0 0 0 - - -, f 5;
#N canvas 284 174 421 412 init 0;
#X obj 93 11 loadbang;
#X obj 129 78 outlet;
#X obj 129 36 delay 5;
#X obj 93 103 delay 10;
#X msg 93 141 \; density2 7 \; \; density_rnd2 12 \; \; duration2 850
\; \; duration_rnd2 1 \; \; position2 0.07 \; \; position_rnd2 1 \;
\; pitch2 0.9 \; \; pitch_rnd2 6 \; \; pan2 0.5 \; \; pan_rnd2 65 \;
\; filter_freq2 1 \; \; filter_freq_rnd2 30 \; \; filter_q2 2.5 \;
\; filter_q_rnd2 10 \;;
#X obj 129 57 symbol Lick1a.wav;
#X obj 196 28 bng 15 250 50 0 empty empty empty 17 7 0 10 -262144 -1
-1;
#X obj 169 113 r reset;
#X connect 0 0 2 0;
#X connect 0 0 3 0;
#X connect 2 0 5 0;
#X connect 3 0 4 0;
#X connect 5 0 1 0;
#X connect 6 0 5 0;
#X connect 7 0 4 0;
#X restore 84 161 pd init \$1;
#N canvas 600 292 287 244 lfo 0;
#X obj 42 34 inlet;
#X obj 119 34 inlet;
#X obj 119 75 osc~ 0.1;
#X obj 119 146 snapshot~;
#X obj 42 75 metro 10;
#X obj 119 165 outlet;
#X obj 119 114 +~ 0.5;
#X obj 119 94 *~ 0.49;
#X connect 0 0 4 0;
#X connect 1 0 2 0;
#X connect 2 0 7 0;
#X connect 3 0 5 0;
#X connect 4 0 3 0;
#X connect 6 0 3 0;
#X connect 7 0 6 0;
#X restore 805 134 pd lfo \$1;
#X obj 805 62 loadbang;
#X obj 517 105 r snsr3;
#X obj 443 160 -;
#X obj 472 143 t b f;
#X obj 560 488 loadbang;
#X obj 704 481 r snsr3;
#X obj 704 502 / 900;
#X obj 651 550 -;
#X obj 669 526 t b f;
#X floatatom 551 598 5 0 0 0 - - -, f 5;
#X obj 517 126 / 200;
#N canvas 0 50 450 250 (subpatch) 0;
#X array \$1-sourceL 2.11734e+006 float 2;
#X coords 0 1 2.11734e+006 -1 128 64 1 0 0;
#X restore 77 333 graph;
#X msg 81 222 read -resize \$1 \$2-sourceL \$2-sourceR;
#X obj 1029 102 r snsr1;
#X obj 1029 124 / 3000;
#X obj 976 168 -;
#X obj 995 146 t b f;
#X text 115 28 Granulateur stereo avec contrôle sur tous les paramètres.
;
#X msg 838 89 0.012;
#X obj 239 524 clone grainclone2~ 10 \$1;
#X floatatom 203 536 5 0 0 0 - - -, f 5;
#X obj 239 548 lop~ 6000;
#X obj 329 548 lop~ 6000;
#X obj 117 527 r snsr1;
#X text 115 587 lo pass affecte;
#X text 117 600 par sensor1;
#X obj 117 569 expr 7000 - $f1;
#X obj 117 548 * 23;
#X obj 239 570 lop~ 6000;
#X obj 329 570 lop~ 6000;
#X obj 672 19 r bildop1;
#X msg 672 43 0.582;
#X msg 718 43 0.5;
#X obj 718 66 s pitch2;
#X msg 684 88 \$1 4000;
#X obj 727 118 line;
#N canvas 0 50 450 300 snsr2gate 0;
#X obj 133 155 gate;
#X obj 231 152 gate;
#X obj 133 132 tgl 15 0 empty empty empty 17 7 0 10 -262144 -1 -1 1
1;
#X obj 231 129 tgl 15 0 empty empty empty 17 7 0 10 -262144 -1 -1 0
1;
#X floatatom 133 180 5 0 0 0 - - -, f 5;
#X floatatom 231 175 5 0 0 0 - - -, f 5;
#X obj 134 66 inlet;
#X obj 190 246 outlet;
#X obj 56 104 loadbang;
#X obj 231 216 line;
#X msg 231 194 \$1 7000;
#X obj 188 76 r bildop1;
#X msg 266 113 0.9;
#X obj 287 55 r reset;
#X msg 282 80 0;
#X msg 325 78 1;
#X connect 0 0 4 0;
#X connect 1 0 5 0;
#X connect 2 0 0 0;
#X connect 3 0 1 0;
#X connect 4 0 7 0;
#X connect 5 0 10 0;
#X connect 6 0 0 1;
#X connect 8 0 2 0;
#X connect 9 0 7 0;
#X connect 10 0 9 0;
#X connect 11 0 2 0;
#X connect 11 0 3 0;
#X connect 11 0 12 0;
#X connect 12 0 1 1;
#X connect 13 0 14 0;
#X connect 13 0 15 0;
#X connect 14 0 3 0;
#X connect 15 0 2 0;
#X restore 343 486 pd snsr2gate;
#X obj 477 443 r CueFIN;
#X msg 477 465 0;
#X obj 343 445 / 300;
#X text 390 43 Cues recus par FormeCueSends;
#X text 219 394 Lick1a.wav;
#X connect 0 0 1 0;
#X connect 1 0 2 0;
#X connect 2 0 60 0;
#X connect 2 1 61 0;
#X connect 2 2 24 0;
#X connect 3 0 1 1;
#X connect 5 0 6 0;
#X connect 6 0 72 0;
#X connect 7 0 59 0;
#X connect 8 0 87 0;
#X connect 10 0 24 1;
#X connect 11 0 58 0;
#X connect 11 0 12 0;
#X connect 12 0 13 0;
#X connect 13 0 57 0;
#X connect 14 0 64 0;
#X connect 15 0 14 1;
#X connect 16 0 17 0;
#X connect 17 0 18 0;
#X connect 18 0 62 0;
#X connect 19 0 18 1;
#X connect 20 0 100 0;
#X connect 21 0 22 0;
#X connect 22 0 65 0;
#X connect 23 0 22 1;
#X connect 24 0 3 0;
#X connect 25 0 24 2;
#X connect 26 0 14 0;
#X connect 27 0 57 1;
#X connect 31 0 32 0;
#X connect 32 0 33 0;
#X connect 33 0 66 0;
#X connect 34 0 33 1;
#X connect 36 0 37 0;
#X connect 37 0 38 0;
#X connect 38 0 68 0;
#X connect 39 0 38 1;
#X connect 40 0 92 0;
#X connect 41 0 42 0;
#X connect 42 0 43 0;
#X connect 43 0 36 0;
#X connect 44 0 45 0;
#X connect 45 0 46 0;
#X connect 46 0 69 0;
#X connect 47 0 46 1;
#X connect 48 0 67 0;
#X connect 55 0 84 0;
#X connect 56 0 84 1;
#X connect 57 0 26 0;
#X connect 63 0 12 1;
#X connect 70 0 73 0;
#X connect 71 0 72 1;
#X connect 72 0 97 0;
#X connect 73 0 71 0;
#X connect 76 0 74 0;
#X connect 77 0 75 0;
#X connect 78 0 76 1;
#X connect 78 0 77 1;
#X connect 79 0 78 0;
#X connect 80 0 79 0;
#X connect 81 0 124 0;
#X connect 82 0 121 0;
#X connect 83 0 72 0;
#X connect 84 0 11 0;
#X connect 85 0 55 0;
#X connect 85 0 103 0;
#X connect 86 0 95 0;
#X connect 87 0 10 0;
#X connect 88 0 87 0;
#X connect 88 1 87 1;
#X connect 89 0 48 0;
#X connect 90 0 91 0;
#X connect 91 0 93 0;
#X connect 92 0 41 0;
#X connect 92 0 94 0;
#X connect 93 0 92 0;
#X connect 93 1 92 1;
#X connect 95 0 88 0;
#X connect 97 0 7 0;
#X connect 98 0 99 0;
#X connect 99 0 101 0;
#X connect 100 0 21 0;
#X connect 101 0 100 0;
#X connect 101 1 100 1;
#X connect 103 0 56 0;
#X connect 104 0 106 0;
#X connect 104 1 107 0;
#X connect 105 0 106 1;
#X connect 105 0 107 1;
#X connect 105 0 113 1;
#X connect 105 0 114 1;
#X connect 106 0 113 0;
#X connect 107 0 114 0;
#X connect 108 0 112 0;
#X connect 111 0 105 0;
#X connect 112 0 111 0;
#X connect 113 0 76 0;
#X connect 114 0 77 0;
#X connect 115 0 117 0;
#X connect 115 0 116 0;
#X connect 115 0 55 0;
#X connect 116 0 11 0;
#X connect 116 0 119 0;
#X connect 117 0 118 0;
#X connect 119 0 120 0;
#X connect 120 0 11 0;
#X connect 121 0 80 0;
#X connect 122 0 123 0;
#X connect 123 0 80 0;
#X connect 124 0 82 0;
