#N canvas 704 177 1195 723 10;
#X obj 358 152 tgl 15 0 empty GranTog empty 17 7 0 10 -262144 -1 -1
0 1;
#X obj 358 270 metro 1000;
#X obj 357 293 t b b b;
#X floatatom 415 249 5 0 0 0 - - -, f 5;
#N canvas 0 50 450 250 (subpatch) 0;
#X array \$1-sourceR 1.52099e+006 float 2;
#X coords 0 1 1.52099e+006 -1 128 64 1 0 0;
#X restore 72 464 graph;
#X msg 45 146 bang;
#X obj 45 168 openpanel;
#X obj 65 275 soundfiler;
#X floatatom 405 151 5 0 0 0 - density3 -, f 5;
#X text 401 135 density per second;
#X obj 405 173 expr 1 / $f1 * 1000;
#X obj 808 102 hsl 128 15 0 1 0 1 empty position3 empty -2 -8 0 10
-262144 -1 -1 0 0;
#X obj 805 211 *;
#X floatatom 805 238 9 0 0 0 - - -, f 9;
#X obj 805 362 randomize~;
#X floatatom 872 341 5 0 100 0 - position_rnd3 -, f 5;
#X floatatom 613 143 10 0 0 0 - duration3 -, f 10;
#X obj 613 167 sig~;
#X obj 613 188 randomize~;
#X floatatom 670 168 5 0 100 0 - duration_rnd3 -, f 5;
#X floatatom 976 170 10 0 0 0 - pitch3 -, f 10;
#X obj 976 192 sig~;
#X obj 976 214 randomize~;
#X floatatom 1065 173 5 0 0 0 - pitch_rnd3 -, f 5;
#X obj 375 223 randomize;
#X floatatom 426 203 5 0 100 0 - density_rnd3 -, f 5;
#X obj 805 310 line~;
#X text 612 127 grain dur;
#X text 974 152 grain pitch;
#X text 873 81 grain pos;
#X floatatom 964 376 10 0 1 0 - pan3 -, f 10;
#X obj 964 395 sig~;
#X obj 964 419 randomize~;
#X floatatom 1031 398 5 0 100 0 - pan_rnd3 -, f 5;
#X text 966 351 grain pan;
#X floatatom 682 488 10 0 1 0 - - -, f 10;
#X obj 682 509 sig~;
#X obj 682 531 randomize~;
#X floatatom 739 511 5 0 100 0 - filter_freq_rnd3 -, f 5;
#X obj 607 466 hsl 128 15 0 1 0 1 empty filter_freq3 empty -2 -8 0
10 -262144 -1 -1 9525 0;
#X obj 604 484 pow 4;
#X obj 604 503 * 10000;
#X obj 604 523 + 20;
#X floatatom 810 467 10 1 100 0 - filter_q3 -, f 10;
#X obj 810 487 sig~;
#X obj 810 509 randomize~;
#X floatatom 867 490 5 0 100 0 - filter_q_rnd3 -, f 5;
#X obj 562 445 tgl 15 0 empty empty empty 17 7 0 10 -262144 -1 -1 0
1;
#N canvas 117 137 829 327 pan_algos 0;
#X obj 101 51 hsl 128 15 0 1 0 0 empty empty empty -2 -8 0 10 -262144
-1 -1 0 1;
#X obj 37 92 expr 1 - $f1;
#X floatatom 165 99 5 0 0 0 - - -, f 5;
#X obj 64 149 expr $f1*$f1 + $f2*$f2;
#X obj 165 118 t b f;
#X floatatom 64 168 5 0 0 0 - - -, f 5;
#X obj 327 45 hsl 128 15 0 1 0 0 empty empty empty -2 -8 0 10 -262144
-1 -1 0 1;
#X obj 289 147 expr $f1*$f1 + $f2*$f2;
#X obj 390 116 t b f;
#X floatatom 289 166 5 0 0 0 - - -, f 5;
#X obj 262 90 expr sqrt(1 - $f1);
#X obj 390 94 sqrt;
#X obj 567 45 hsl 128 15 0 1 0 0 empty empty empty -2 -8 0 10 -262144
-1 -1 0 1;
#X obj 518 163 expr $f1*$f1 + $f2*$f2;
#X obj 620 132 t b f;
#X floatatom 518 182 5 0 0 0 - - -, f 5;
#X obj 504 79 expr cos($f1 * 3.14159 / 2);
#X obj 606 102 expr sin($f1 * 3.14159 / 2);
#X floatatom 685 130 5 0 0 0 - - -, f 5;
#X floatatom 526 102 5 0 0 0 - - -, f 5;
#X floatatom 436 112 5 0 0 0 - - -, f 5;
#X floatatom 294 114 5 0 0 0 - - -, f 5;
#X floatatom 65 116 5 0 0 0 - - -, f 5;
#X text 111 29 0 ---- 1;
#X text 340 28 0 ---- 1;
#X text 573 26 0 ---- 1;
#X connect 0 0 1 0;
#X connect 0 0 2 0;
#X connect 1 0 3 0;
#X connect 1 0 22 0;
#X connect 2 0 4 0;
#X connect 3 0 5 0;
#X connect 4 0 3 0;
#X connect 4 1 3 1;
#X connect 6 0 10 0;
#X connect 6 0 11 0;
#X connect 7 0 9 0;
#X connect 8 0 7 0;
#X connect 8 1 7 1;
#X connect 10 0 7 0;
#X connect 10 0 21 0;
#X connect 11 0 8 0;
#X connect 11 0 20 0;
#X connect 12 0 16 0;
#X connect 12 0 17 0;
#X connect 13 0 15 0;
#X connect 14 0 13 0;
#X connect 14 1 13 1;
#X connect 16 0 13 0;
#X connect 16 0 19 0;
#X connect 17 0 14 0;
#X connect 17 0 18 0;
#X restore 69 322 pd pan_algos;
#X text 355 137 GO!;
#X text 602 448 grain filter freq;
#X text 808 450 grain filter Q;
#X text 558 428 filter on/off;
#X text 75 59 Granulateur avec contrôle sur tous les paramètres.
;
#X text 41 130 charger un son;
#X obj 805 57 tgl 15 0 empty empty empty 17 7 0 10 -262144 -1 -1 1
1;
#X floatatom 838 54 5 0 0 0 - - -, f 5;
#X obj 805 276 pack f 10;
#X floatatom 814 118 5 0 0 0 - - -, f 5;
#X obj 65 294 s \$1-sourcesize;
#X obj 357 339 s \$1-masterclock;
#X obj 376 317 s \$1-opengate;
#X obj 614 210 s~ \$1-graindur;
#X obj 823 189 r \$1-sourcesize;
#X obj 805 385 s~ \$1-grainpos;
#X obj 976 235 s~ \$1-grainpit;
#X obj 965 441 s~ \$1-grainpan;
#X obj 562 552 s \$1-grainfilter;
#X obj 682 552 s~ \$1-grainfreq;
#X obj 810 530 s~ \$1-grainQ;
#X obj 150 168 loadbang;
#X floatatom 150 212 5 0 0 0 - - -, f 5;
#X obj 65 226 pack s f;
#X obj 150 190 f \$1;
#X obj 221 627 throw~ OutL;
#X obj 312 627 throw~ OutR;
#X obj 221 600 *~;
#X obj 312 601 *~;
#X obj 405 584 line~;
#X msg 405 562 \$1 20;
#X obj 469 502 vsl 15 128 0 1 0 0 empty empty empty 0 -9 0 10 -262144
-1 -1 0 1;
#X obj 345 414 r snsr\$1;
#X obj 345 437 / 300;
#X floatatom 345 460 5 0 0 0 - - -, f 5;
#N canvas 278 173 421 412 init 0;
#X obj 93 11 loadbang;
#X obj 129 78 outlet;
#X obj 129 36 delay 5;
#X obj 93 112 delay 10;
#X msg 93 146 \; density3 6.5 \; \; density_rnd3 2 \; \; duration3
373 \; \; duration_rnd3 15 \; \; position3 0.7 \; \; position_rnd3
1 \; \; pitch3 1.75 \; \; pitch_rnd3 5 \; \; pan3 0.5 \; \; pan_rnd3
35 \; \; filter_freq3 0.75 \; \; filter_freq_rnd3 30 \; \; filter_q3
12 \; \; filter_q_rnd3 10 \;;
#X obj 129 57 symbol Cles1.wav;
#X obj 163 121 r reset;
#X connect 0 0 2 0;
#X connect 0 0 3 0;
#X connect 2 0 5 0;
#X connect 3 0 4 0;
#X connect 5 0 1 0;
#X connect 6 0 4 0;
#X restore 68 195 pd init \$1;
#N canvas 626 264 729 515 lfo 0;
#X obj 42 34 inlet;
#X obj 119 34 inlet;
#X obj 119 75 osc~ 0.1;
#X obj 119 146 snapshot~;
#X obj 42 75 metro 10;
#X obj 119 165 outlet;
#X obj 119 114 +~ 0.5;
#X obj 119 94 *~ 0.5;
#X connect 0 0 4 0;
#X connect 1 0 2 0;
#X connect 2 0 7 0;
#X connect 3 0 5 0;
#X connect 4 0 3 0;
#X connect 6 0 3 0;
#X connect 7 0 6 0;
#X restore 805 76 pd lfo \$1;
#X obj 1059 326 tgl 15 0 empty empty empty 17 7 0 10 -262144 -1 -1
1 1;
#X floatatom 1092 323 5 0 0 0 - - -, f 5;
#N canvas 626 264 729 515 lfo 0;
#X obj 42 34 inlet;
#X obj 119 34 inlet;
#X obj 119 75 osc~ 0.1;
#X obj 119 146 snapshot~;
#X obj 42 75 metro 10;
#X obj 119 165 outlet;
#X obj 119 115 +~ 40;
#X obj 119 94 *~ 36;
#X connect 0 0 4 0;
#X connect 1 0 2 0;
#X connect 2 0 7 0;
#X connect 3 0 5 0;
#X connect 4 0 3 0;
#X connect 6 0 3 0;
#X connect 7 0 6 0;
#X restore 1059 345 pd lfo \$1;
#X obj 1059 367 s pan_rnd3;
#X obj 1048 293 loadbang;
#X obj 805 3 loadbang;
#X msg 838 32 0.02;
#X msg 65 256 read -resize \$1 \$2-sourceL \$2-sourceR;
#N canvas 0 50 450 250 (subpatch) 0;
#X array \$1-sourceL 1.52099e+006 float 2;
#X coords 0 1 1.52099e+006 -1 128 64 1 0 0;
#X restore 74 381 graph;
#X obj 222 547 clone grainclone2~ 10 \$1;
#X obj 718 40 t b b;
#X obj 718 85 line;
#X msg 718 63 0.475 5000;
#X obj 718 18 r bildop1;
#X obj 640 20 r bildop2;
#X obj 561 20 r bildop3;
#X msg 561 63 0.84 5000;
#X msg 640 63 0.795 5000;
#N canvas 205 82 450 300 snsr3gate 0;
#X obj 133 155 gate;
#X obj 231 152 gate;
#X obj 133 132 tgl 15 0 empty empty empty 17 7 0 10 -262144 -1 -1 1
1;
#X obj 231 129 tgl 15 0 empty empty empty 17 7 0 10 -262144 -1 -1 0
1;
#X floatatom 133 180 5 0 0 0 - - -, f 5;
#X floatatom 231 175 5 0 0 0 - - -, f 5;
#X obj 134 66 inlet;
#X obj 190 246 outlet;
#X obj 56 104 loadbang;
#X obj 188 76 r bildop2;
#X obj 231 216 line;
#X msg 231 194 \$1 7000;
#X msg 266 113 0.9;
#X obj 294 43 r reset;
#X msg 283 75 1;
#X msg 316 74 0;
#X connect 0 0 4 0;
#X connect 1 0 5 0;
#X connect 2 0 0 0;
#X connect 3 0 1 0;
#X connect 4 0 7 0;
#X connect 5 0 11 0;
#X connect 6 0 0 1;
#X connect 8 0 2 0;
#X connect 9 0 2 0;
#X connect 9 0 3 0;
#X connect 9 0 12 0;
#X connect 10 0 7 0;
#X connect 11 0 10 0;
#X connect 12 0 1 1;
#X connect 13 0 14 0;
#X connect 13 0 15 0;
#X connect 14 0 2 0;
#X connect 15 0 3 0;
#X restore 345 483 pd snsr3gate;
#X obj 469 442 r CueFIN;
#X msg 469 464 0;
#X obj 894 19 r reset;
#X text 215 443 Cles1.wav;
#X text 334 42 Cues recus par FormeCueSends;
#X connect 0 0 1 0;
#X connect 1 0 2 0;
#X connect 2 0 60 0;
#X connect 2 1 61 0;
#X connect 2 2 24 0;
#X connect 3 0 1 1;
#X connect 5 0 6 0;
#X connect 6 0 72 0;
#X connect 7 0 59 0;
#X connect 8 0 10 0;
#X connect 10 0 24 1;
#X connect 11 0 58 0;
#X connect 11 0 12 0;
#X connect 12 0 13 0;
#X connect 13 0 57 0;
#X connect 14 0 64 0;
#X connect 15 0 14 1;
#X connect 16 0 17 0;
#X connect 17 0 18 0;
#X connect 18 0 62 0;
#X connect 19 0 18 1;
#X connect 20 0 21 0;
#X connect 21 0 22 0;
#X connect 22 0 65 0;
#X connect 23 0 22 1;
#X connect 24 0 3 0;
#X connect 25 0 24 2;
#X connect 26 0 14 0;
#X connect 30 0 31 0;
#X connect 31 0 32 0;
#X connect 32 0 66 0;
#X connect 33 0 32 1;
#X connect 35 0 36 0;
#X connect 36 0 37 0;
#X connect 37 0 68 0;
#X connect 38 0 37 1;
#X connect 39 0 40 0;
#X connect 40 0 41 0;
#X connect 41 0 42 0;
#X connect 42 0 35 0;
#X connect 43 0 44 0;
#X connect 44 0 45 0;
#X connect 45 0 69 0;
#X connect 46 0 45 1;
#X connect 47 0 67 0;
#X connect 55 0 85 0;
#X connect 56 0 85 1;
#X connect 57 0 26 0;
#X connect 63 0 12 1;
#X connect 70 0 73 0;
#X connect 71 0 72 1;
#X connect 72 0 93 0;
#X connect 73 0 71 0;
#X connect 76 0 74 0;
#X connect 77 0 75 0;
#X connect 78 0 76 1;
#X connect 78 0 77 1;
#X connect 79 0 78 0;
#X connect 80 0 79 0;
#X connect 81 0 82 0;
#X connect 82 0 83 0;
#X connect 83 0 104 0;
#X connect 84 0 72 0;
#X connect 85 0 11 0;
#X connect 86 0 88 0;
#X connect 87 0 88 1;
#X connect 88 0 89 0;
#X connect 90 0 86 0;
#X connect 91 0 55 0;
#X connect 91 0 92 0;
#X connect 92 0 56 0;
#X connect 93 0 7 0;
#X connect 95 0 76 0;
#X connect 95 1 77 0;
#X connect 96 0 98 0;
#X connect 96 1 55 0;
#X connect 97 0 11 0;
#X connect 98 0 97 0;
#X connect 99 0 96 0;
#X connect 100 0 103 0;
#X connect 101 0 102 0;
#X connect 102 0 97 0;
#X connect 103 0 97 0;
#X connect 104 0 80 0;
#X connect 105 0 106 0;
#X connect 106 0 80 0;
#X connect 107 0 55 0;
