#N canvas 839 476 911 390 10;
#X obj 336 97 unpackOSC;
#X floatatom 37 223 6 0 0 0 - - -, f 6;
#X floatatom 85 223 6 0 0 0 - - -, f 6;
#X floatatom 133 223 6 0 0 0 - - -, f 6;
#X obj 606 148 print;
#X obj 287 106 print;
#X msg 359 33 port 10000;
#X obj 336 63 udpreceive 10000;
#X obj 37 197 routeOSC /IR /Full /Vis /Lux;
#X floatatom 181 223 6 0 0 0 - - -, f 6;
#X obj 37 244 s ir1, f 6;
#X obj 133 244 s vis1;
#X obj 181 244 s lux1;
#X floatatom 243 223 6 0 0 0 - - -, f 6;
#X floatatom 291 223 6 0 0 0 - - -, f 6;
#X floatatom 339 223 6 0 0 0 - - -, f 6;
#X obj 243 197 routeOSC /IR /Full /Vis /Lux;
#X floatatom 387 224 6 0 0 0 - - -, f 6;
#X floatatom 447 223 6 0 0 0 - - -, f 6;
#X floatatom 495 223 6 0 0 0 - - -, f 6;
#X floatatom 543 223 6 0 0 0 - - -, f 6;
#X obj 447 197 routeOSC /IR /Full /Vis /Lux;
#X floatatom 591 224 6 0 0 0 - - -, f 6;
#X obj 243 244 s ir2, f 6;
#X obj 339 244 s vis2;
#X obj 387 244 s lux2;
#X obj 447 244 s ir3, f 6;
#X obj 543 244 s vis3;
#X obj 591 244 s lux3;
#X obj 291 267 line;
#X obj 85 267 line;
#X obj 495 267 line;
#X obj 336 124 routeOSC /HUZ1 /HUZ2 /HUZ3 /HUZ4, f 39;
#X floatatom 653 223 6 0 0 0 - - -, f 6;
#X floatatom 701 223 6 0 0 0 - - -, f 6;
#X floatatom 749 223 6 0 0 0 - - -, f 6;
#X obj 653 197 routeOSC /IR /Full /Vis /Lux;
#X floatatom 797 224 6 0 0 0 - - -, f 6;
#X obj 701 268 line;
#X obj 653 244 s ir4, f 6;
#X obj 749 244 s vis4;
#X obj 797 244 s lux4;
#X text 105 41 Reception des messages OSC;
#X text 112 58 A l'adresse 10000;
#X obj 85 288 s ful1;
#X obj 291 288 s ful2;
#X obj 495 288 s ful3;
#X obj 701 289 s ful4;
#X msg 85 246 \$1 200;
#X msg 291 246 \$1 200;
#X msg 495 246 \$1 200;
#X msg 701 247 \$1 200;
#X connect 0 0 32 0;
#X connect 1 0 10 0;
#X connect 2 0 48 0;
#X connect 3 0 11 0;
#X connect 6 0 7 0;
#X connect 7 0 0 0;
#X connect 8 0 1 0;
#X connect 8 1 2 0;
#X connect 8 2 3 0;
#X connect 8 3 9 0;
#X connect 9 0 12 0;
#X connect 13 0 23 0;
#X connect 14 0 49 0;
#X connect 15 0 24 0;
#X connect 16 0 13 0;
#X connect 16 1 14 0;
#X connect 16 2 15 0;
#X connect 16 3 17 0;
#X connect 17 0 25 0;
#X connect 18 0 26 0;
#X connect 19 0 50 0;
#X connect 20 0 27 0;
#X connect 21 0 18 0;
#X connect 21 1 19 0;
#X connect 21 2 20 0;
#X connect 21 3 22 0;
#X connect 22 0 28 0;
#X connect 29 0 45 0;
#X connect 30 0 44 0;
#X connect 31 0 46 0;
#X connect 32 0 8 0;
#X connect 32 1 16 0;
#X connect 32 2 21 0;
#X connect 32 3 36 0;
#X connect 32 4 4 0;
#X connect 33 0 39 0;
#X connect 34 0 51 0;
#X connect 35 0 40 0;
#X connect 36 0 33 0;
#X connect 36 1 34 0;
#X connect 36 2 35 0;
#X connect 36 3 37 0;
#X connect 37 0 41 0;
#X connect 38 0 47 0;
#X connect 48 0 30 0;
#X connect 49 0 29 0;
#X connect 50 0 31 0;
#X connect 51 0 38 0;
