#N canvas 958 101 694 353 10;
#X obj 178 108 unpackOSC;
#X obj 178 135 routeOSC /HUZ1 /HUZ2 /HUZ3, f 39;
#X floatatom 21 234 6 0 0 0 - - -, f 6;
#X floatatom 69 234 6 0 0 0 - - -, f 6;
#X floatatom 117 234 6 0 0 0 - - -, f 6;
#X obj 444 159 print;
#X obj 131 121 print;
#X msg 201 44 port 10000;
#X obj 178 74 udpreceive 10000;
#X obj 21 208 routeOSC /IR /Full /Vis /Lux;
#X floatatom 165 235 6 0 0 0 - - -, f 6;
#X obj 21 255 s ir1, f 6;
#X obj 117 255 s vis1;
#X obj 165 255 s lux1;
#X obj 69 255 s ful1;
#X floatatom 227 234 6 0 0 0 - - -, f 6;
#X floatatom 275 234 6 0 0 0 - - -, f 6;
#X floatatom 323 234 6 0 0 0 - - -, f 6;
#X obj 227 208 routeOSC /IR /Full /Vis /Lux;
#X floatatom 371 235 6 0 0 0 - - -, f 6;
#X floatatom 431 234 6 0 0 0 - - -, f 6;
#X floatatom 479 234 6 0 0 0 - - -, f 6;
#X floatatom 527 234 6 0 0 0 - - -, f 6;
#X obj 431 208 routeOSC /IR /Full /Vis /Lux;
#X floatatom 575 235 6 0 0 0 - - -, f 6;
#X obj 227 255 s ir2, f 6;
#X obj 275 255 s ful2;
#X obj 323 255 s vis2;
#X obj 371 255 s lux2;
#X obj 431 255 s ir3, f 6;
#X obj 479 255 s ful3;
#X obj 527 255 s vis3;
#X obj 575 255 s lux3;
#X connect 0 0 1 0;
#X connect 1 0 9 0;
#X connect 1 1 18 0;
#X connect 1 2 23 0;
#X connect 1 3 5 0;
#X connect 2 0 11 0;
#X connect 3 0 14 0;
#X connect 4 0 12 0;
#X connect 7 0 8 0;
#X connect 8 0 0 0;
#X connect 9 0 2 0;
#X connect 9 1 3 0;
#X connect 9 2 4 0;
#X connect 9 3 10 0;
#X connect 10 0 13 0;
#X connect 15 0 25 0;
#X connect 16 0 26 0;
#X connect 17 0 27 0;
#X connect 18 0 15 0;
#X connect 18 1 16 0;
#X connect 18 2 17 0;
#X connect 18 3 19 0;
#X connect 19 0 28 0;
#X connect 20 0 29 0;
#X connect 21 0 30 0;
#X connect 22 0 31 0;
#X connect 23 0 20 0;
#X connect 23 1 21 0;
#X connect 23 2 22 0;
#X connect 23 3 24 0;
#X connect 24 0 32 0;
