#N canvas 0 0 588 438 10;
#X obj 214 89 inlet freq;
#X obj 322 90 inlet min;
#X obj 413 90 inlet max;
#X obj 214 117 osc~;
#X obj 214 154 *~ 0.5;
#X obj 214 176 +~ 0.5;
#X obj 322 172 -;
#X obj 322 117 t b f;
#X obj 215 214 *~;
#X obj 214 249 +~;
#X obj 213 278 outlet~;
#X text 96 119 onde sinusoidale;
#X text 304 196 max - min = ambitus total;
#X text 89 158 rammène le signal;
#X text 89 170 entre 0 et 1;
#X text 103 208 multiplié par;
#X text 103 221 l'ambitus total;
#X text 136 243 additionné;
#X text 136 254 au minimum;
#X connect 0 0 3 0;
#X connect 1 0 7 0;
#X connect 1 0 9 1;
#X connect 2 0 6 0;
#X connect 3 0 4 0;
#X connect 4 0 5 0;
#X connect 5 0 8 0;
#X connect 6 0 8 1;
#X connect 7 0 6 0;
#X connect 7 1 6 1;
#X connect 8 0 9 0;
#X connect 9 0 10 0;
