#N canvas 684 79 963 825 10;
#X msg 379 750 draw line;
#X obj 320 330 translateXYZ;
#X floatatom 322 282 5 0 0 0 - - -, f 5;
#X floatatom 364 282 5 0 0 0 - - -, f 5;
#X floatatom 409 281 5 0 0 0 - - -, f 5;
#X obj 624 565 colorRGB;
#X obj 453 498 rotateXYZ;
#X floatatom 609 534 5 0 0 0 - - -, f 5;
#X floatatom 645 535 5 0 0 0 - - -, f 5;
#X floatatom 682 535 5 0 0 0 - - -, f 5;
#X floatatom 736 551 5 0 0 0 - - -, f 5;
#X floatatom 510 756 5 0 0 0 - - -, f 5;
#X obj 474 778 rectangle;
#X floatatom 554 756 5 0 0 0 - - -, f 5;
#X obj 379 727 loadbang;
#X floatatom 442 455 5 0 0 0 - - -, f 5;
#X floatatom 504 451 5 0 0 0 - - -, f 5;
#X floatatom 562 426 5 0 0 0 - - -, f 5;
#X obj 289 174 lfo~;
#X obj 288 204 snapshot~;
#X floatatom 299 148 5 0 0 0 - - -, f 5;
#X floatatom 339 159 5 0 0 0 - - -, f 5;
#X floatatom 260 148 5 0 0 0 - - -, f 5;
#X text 256 131 freq;
#X text 298 130 min;
#X text 337 131 max;
#X obj 359 68 loadbang;
#X obj 411 176 lfo~;
#X obj 411 204 snapshot~;
#X floatatom 421 146 5 0 0 0 - - -, f 5;
#X floatatom 460 146 5 0 0 0 - - -, f 5;
#X floatatom 382 146 5 0 0 0 - - -, f 5;
#X text 378 130 freq;
#X text 420 129 min;
#X text 459 130 max;
#X msg 459 105 30;
#X msg 420 105 -30;
#X msg 371 212 45;
#X msg 409 260 0.5;
#X obj 182 277 gemhead;
#X obj 502 187 r FPSmetro;
#X msg 381 103 0.05;
#X obj 539 675 loadbang;
#X msg 259 104 0.045;
#X msg 298 106 -3;
#X msg 337 106 3;
#X obj 182 251 inlet tog;
#X msg 562 403 45;
#X obj 562 380 loadbang;
#X msg 539 696 0;
#X obj 606 659 inlet size;
#X obj 539 728 expr $f1 + (\$1 * $f2);
#X obj 684 702 inlet gap;
#X obj 394 380 inlet rotation;
#X obj 394 403 expr $f1 * (\$1 + 0.5);
#X obj 364 628 alpha;
#X floatatom 371 604 1 0 1 0 - - -, f 1;
#X msg 364 567 auto \$1;
#X obj 364 549 tgl 15 0 empty empty empty 0 -6 0 8 -262144 -1 -1 1
1;
#X obj 396 596 tgl 15 0 empty empty empty 0 -6 0 8 -262144 -1 -1 1
1;
#X obj 396 532 loadbang;
#X obj 736 529 expr 1 / ($f1+0.001);
#X msg 729 599 1, f 2;
#X obj 729 577 loadbang;
#X obj 606 681 expr $f1 * 0.1;
#X text 703 298 10 a 1;
#X text 701 335 1/(25 - 10);
#X obj 766 385 expr if($f1 >= \$1 \, 1 \, 1/(10-$f1)) \;;
#X obj 604 451 r Red;
#X obj 654 450 r Green;
#X obj 716 450 r Blue;
#X obj 603 473 t b f;
#X obj 654 473 t b f;
#X obj 716 471 t b f;
#X msg 341 782 draw fill;
#X obj 471 714 scale;
#X floatatom 483 681 5 0 0 0 - - -, f 5;
#X obj 888 634 inlet scale;
#X obj 782 364 inlet rgb;
#X msg 435 432 2;
#X obj 604 496 *;
#X obj 655 496 *;
#X obj 717 494 *;
#X connect 0 0 12 0;
#X connect 1 0 6 0;
#X connect 2 0 1 1;
#X connect 3 0 1 2;
#X connect 4 0 1 3;
#X connect 5 0 55 0;
#X connect 6 0 5 0;
#X connect 7 0 5 1;
#X connect 8 0 5 2;
#X connect 9 0 5 3;
#X connect 11 0 12 1;
#X connect 13 0 12 2;
#X connect 14 0 0 0;
#X connect 15 0 6 1;
#X connect 16 0 6 2;
#X connect 17 0 6 3;
#X connect 18 0 19 0;
#X connect 19 0 3 0;
#X connect 20 0 18 1;
#X connect 21 0 18 2;
#X connect 22 0 18 0;
#X connect 26 0 43 0;
#X connect 26 0 44 0;
#X connect 26 0 45 0;
#X connect 26 0 37 0;
#X connect 26 0 41 0;
#X connect 26 0 36 0;
#X connect 26 0 35 0;
#X connect 27 0 28 0;
#X connect 29 0 27 1;
#X connect 30 0 27 2;
#X connect 31 0 27 0;
#X connect 35 0 30 0;
#X connect 36 0 29 0;
#X connect 38 0 4 0;
#X connect 39 0 1 0;
#X connect 40 0 28 0;
#X connect 40 0 19 0;
#X connect 41 0 31 0;
#X connect 42 0 49 0;
#X connect 43 0 22 0;
#X connect 44 0 20 0;
#X connect 45 0 21 0;
#X connect 46 0 39 0;
#X connect 47 0 17 0;
#X connect 48 0 47 0;
#X connect 48 0 79 0;
#X connect 49 0 51 0;
#X connect 50 0 64 0;
#X connect 51 0 13 0;
#X connect 51 0 11 0;
#X connect 52 0 51 1;
#X connect 53 0 54 0;
#X connect 54 0 16 0;
#X connect 55 0 75 0;
#X connect 56 0 55 0;
#X connect 57 0 55 0;
#X connect 58 0 57 0;
#X connect 59 0 55 1;
#X connect 60 0 58 0;
#X connect 60 0 59 0;
#X connect 61 0 10 0;
#X connect 62 0 5 4;
#X connect 63 0 62 0;
#X connect 64 0 51 0;
#X connect 67 0 80 0;
#X connect 67 0 81 0;
#X connect 67 0 82 0;
#X connect 68 0 71 0;
#X connect 69 0 72 0;
#X connect 70 0 73 0;
#X connect 71 0 80 0;
#X connect 71 1 80 1;
#X connect 72 0 81 0;
#X connect 72 1 81 1;
#X connect 73 0 82 0;
#X connect 73 1 82 1;
#X connect 74 0 12 0;
#X connect 75 0 12 0;
#X connect 76 0 75 1;
#X connect 77 0 76 0;
#X connect 78 0 67 0;
#X connect 79 0 15 0;
#X connect 80 0 7 0;
#X connect 81 0 8 0;
#X connect 82 0 9 0;
