#N canvas 31 153 1242 798 10;
#X obj 229 101 random 1e+06;
#X obj 229 123 / 1e+06;
#X obj 391 96 inlet;
#X obj 391 118 * 0.01;
#X obj 229 160 *;
#X obj 285 166 inlet;
#X obj 229 246 *;
#X obj 245 223 / 2;
#X obj 270 328 +;
#X obj 270 350 outlet;
#X obj 229 50 inlet;
#X obj 327 210 random 2;
#X obj 327 229 sel 0;
#X msg 327 262 -1;
#X obj 229 290 *;
#X text 389 77 % de la déviation (entre 0 e t100);
#X text 4 3 Ajoute un pourcentage de déviation à une valeur donnée.
;
#X text 226 32 Un bang génère une nouvelle valeur.;
#X text 44 109 Nombre aléatoire entre 0 et 1;
#X text 20 159 Ajusté en fonction du pourcentage.;
#X obj 228 72 t b b b b b b b b;
#X text 335 191 -1 ou 1 \, pour une déviation bipolaire.;
#X text 71 224 Multiplié par la moitié de;
#X text 70 239 la valeur à moduler.;
#X text 320 165 <-- Valeur à moduler.;
#X text 300 326 y = x + random(-x*dev \, x*dev);
#X connect 0 0 1 0;
#X connect 1 0 4 0;
#X connect 2 0 3 0;
#X connect 3 0 4 1;
#X connect 4 0 6 0;
#X connect 5 0 7 0;
#X connect 5 0 8 1;
#X connect 6 0 14 0;
#X connect 7 0 6 1;
#X connect 8 0 9 0;
#X connect 10 0 20 0;
#X connect 11 0 12 0;
#X connect 12 0 13 0;
#X connect 12 1 14 1;
#X connect 13 0 14 1;
#X connect 14 0 8 0;
#X connect 20 0 0 0;
#X connect 20 7 11 0;
