#N canvas 564 446 908 352 10;
#N canvas 348 445 776 520 Sax1Load 0;
#N canvas 0 50 450 300 (subpatch) 0;
#X array Sax1Left 542790 float 2;
#X coords 0 1 542790 -1 200 140 1 0 0;
#X restore 513 115 graph;
#N canvas 0 50 450 300 (subpatch) 0;
#X array Sax1Right 542790 float 2;
#X coords 0 1 542790 -1 200 140 1 0 0;
#X restore 512 279 graph;
#X obj 91 199 soundfiler;
#X obj 127 132 loadbang;
#X floatatom 91 225 10 0 0 0 - - -, f 10;
#X obj 136 294 samplerate~;
#X floatatom 136 315 10 0 0 0 - - -, f 10;
#X obj 91 331 /;
#X obj 91 352 * 1000;
#X floatatom 91 375 10 0 0 0 - - -, f 10;
#X text 202 314 samplerate pd;
#X text 155 374 temps (ms) fichier;
#X obj 91 277 t f b;
#X text 157 223 Nb. echantillons;
#X obj 42 56 bng 15 250 50 0 empty empty empty 17 7 0 10 -262144 -1
-1;
#X obj 42 75 openpanel;
#X msg 42 97 read -resize \$1 Sax1Left Sax1Right;
#X msg 127 155 read -resize StetsonSamp1.wav Sax1Left Sax1Right;
#X text 191 132 Mise en memoire de StetsonSamp1.wav au demarrage;
#X obj 91 400 s length1;
#X obj 151 336 s samplesize;
#X obj 121 248 s s1ech;
#X connect 2 0 4 0;
#X connect 3 0 17 0;
#X connect 4 0 12 0;
#X connect 4 0 21 0;
#X connect 5 0 6 0;
#X connect 6 0 7 1;
#X connect 6 0 20 0;
#X connect 7 0 8 0;
#X connect 8 0 9 0;
#X connect 9 0 19 0;
#X connect 12 0 7 0;
#X connect 12 1 5 0;
#X connect 14 0 15 0;
#X connect 15 0 16 0;
#X connect 16 0 2 0;
#X connect 17 0 2 0;
#X restore 404 50 pd Sax1Load;
#N canvas 1055 345 776 520 Sax2Load 0;
#N canvas 0 50 450 300 (subpatch) 0;
#X array Sax2Left 912661 float 2;
#X coords 0 1 912661 -1 200 140 1 0 0;
#X restore 487 112 graph;
#N canvas 0 50 450 300 (subpatch) 0;
#X array Sax2Right 912661 float 2;
#X coords 0 1 912661 -1 200 140 1 0 0;
#X restore 486 275 graph;
#X obj 91 199 soundfiler;
#X obj 127 132 loadbang;
#X floatatom 91 225 10 0 0 0 - - -, f 10;
#X obj 136 294 samplerate~;
#X floatatom 136 315 10 0 0 0 - - -, f 10;
#X obj 91 331 /;
#X obj 91 352 * 1000;
#X floatatom 91 375 10 0 0 0 - - -, f 10;
#X text 202 314 samplerate pd;
#X text 155 374 temps (ms) fichier;
#X obj 91 277 t f b;
#X text 157 223 Nb. echantillons;
#X obj 42 56 bng 15 250 50 0 empty empty empty 17 7 0 10 -262144 -1
-1;
#X obj 42 75 openpanel;
#X msg 42 97 read -resize \$1 Sax2Left Sax2Right;
#X msg 127 155 read -resize StetsonSamp2.wav Sax2Left Sax2Right;
#X text 191 132 Mise en memoire de StetsonSamp2.wav au demarrage;
#X obj 91 400 s length2;
#X obj 128 249 s s2ech;
#X connect 2 0 4 0;
#X connect 3 0 17 0;
#X connect 4 0 12 0;
#X connect 4 0 20 0;
#X connect 5 0 6 0;
#X connect 6 0 7 1;
#X connect 7 0 8 0;
#X connect 8 0 9 0;
#X connect 9 0 19 0;
#X connect 12 0 7 0;
#X connect 12 1 5 0;
#X connect 14 0 15 0;
#X connect 15 0 16 0;
#X connect 16 0 2 0;
#X connect 17 0 2 0;
#X restore 404 72 pd Sax2Load;
#N canvas 741 456 776 520 Sax3Load 0;
#N canvas 0 50 450 300 (subpatch) 0;
#X array Sax3Left 1.7535e+006 float 2;
#X coords 0 1 1.7535e+006 -1 200 140 1 0 0;
#X restore 487 111 graph;
#N canvas 0 50 450 300 (subpatch) 0;
#X array Sax3Right 1.7535e+006 float 2;
#X coords 0 1 1.7535e+006 -1 200 140 1 0 0;
#X restore 486 275 graph;
#X obj 91 199 soundfiler;
#X obj 127 132 loadbang;
#X floatatom 91 225 10 0 0 0 - - -, f 10;
#X obj 136 294 samplerate~;
#X floatatom 136 315 10 0 0 0 - - -, f 10;
#X obj 91 331 /;
#X obj 91 352 * 1000;
#X floatatom 91 375 10 0 0 0 - - -, f 10;
#X text 202 314 samplerate pd;
#X text 155 374 temps (ms) fichier;
#X obj 91 277 t f b;
#X text 157 223 Nb. echantillons;
#X obj 42 56 bng 15 250 50 0 empty empty empty 17 7 0 10 -262144 -1
-1;
#X obj 42 75 openpanel;
#X msg 42 97 read -resize \$1 Sax3Left Sax3Right;
#X msg 127 155 read -resize StetsonSamp3.wav Sax3Left Sax3Right;
#X text 191 132 Mise en memoire de StetsonSamp3.wav au demarrage;
#X obj 91 400 s length3;
#X obj 110 250 s s3ech;
#X connect 2 0 4 0;
#X connect 3 0 17 0;
#X connect 4 0 12 0;
#X connect 4 0 20 0;
#X connect 5 0 6 0;
#X connect 6 0 7 1;
#X connect 7 0 8 0;
#X connect 8 0 9 0;
#X connect 9 0 19 0;
#X connect 12 0 7 0;
#X connect 12 1 5 0;
#X connect 14 0 15 0;
#X connect 15 0 16 0;
#X connect 16 0 2 0;
#X connect 17 0 2 0;
#X restore 404 94 pd Sax3Load;
#X obj 47 24 tgl 25 0 empty empty empty 17 7 0 10 -204786 -1 -1 1 1
;
#X msg 47 56 \; pd dsp \$1;
#X text 79 23 Ouverture;
#X text 81 32 du DSP;
#X obj 85 161 vsl 20 100 0 1 0 0 vol empty Volume -9 -10 0 11 -204786
-1 -1 0 1;
#N canvas 710 138 807 613 Sax1Grains 0;
#X obj 480 195 *;
#X obj 480 292 pack f f f;
#X obj 523 195 *;
#X msg 480 324 \$1 \, \$2 \$3;
#X obj 483 118 hsl 128 15 0 1 0 1 empty empty empty -2 -8 0 10 -262144
-1 -1 0 1;
#X obj 526 156 hsl 128 15 0 1 0 1 empty empty empty -2 -8 0 10 -262144
-1 -1 10897 1;
#X obj 572 293 *;
#X obj 575 221 hsl 128 15 0 2 0 1 empty empty empty -2 -8 0 10 -262144
-1 -1 9525 1;
#X text 572 155 Arrivee;
#X text 529 116 Depart;
#X floatatom 673 236 6 0 0 0 - - -, f 6;
#X text 618 219 Duree;
#X obj 396 275 metro 2000;
#X obj 508 245 +;
#X obj 116 183 *;
#X obj 116 295 pack f f f;
#X obj 159 183 *;
#X msg 116 323 \$1 \, \$2 \$3;
#X obj 119 108 hsl 128 15 0 1 0 1 empty empty empty -2 -8 0 10 -262144
-1 -1 0 1;
#X obj 162 144 hsl 128 15 0 1 0 1 empty empty empty -2 -8 0 10 -262144
-1 -1 11189 1;
#X obj 201 278 *;
#X obj 204 210 hsl 128 15 0 2 0 1 empty empty empty -2 -8 0 10 -262144
-1 -1 9525 1;
#X text 208 143 Arrivee;
#X text 163 105 Depart;
#X floatatom 302 225 6 0 0 0 - - -, f 6;
#X text 249 207 Duree;
#X obj 55 237 metro 2000;
#X obj 144 240 +;
#X obj 360 408 vsl 15 80 0 1 0 0 empty GrainsGlob Vol_Grains -16 -10
0 10 -261234 -1 -1 0 1;
#X obj 235 569 throw~ OutL;
#X obj 434 561 throw~ OutR;
#X obj 144 209 t b f;
#X obj 508 221 t b f;
#X obj 55 209 tgl 15 0 empty Sax1go empty 17 7 0 10 -261234 -1 -1 0
1;
#X obj 396 254 tgl 15 0 empty Sax1go empty 17 7 0 10 -261234 -1 -1
0 1;
#X floatatom 226 295 8 0 0 0 - - -, f 8;
#X floatatom 594 312 8 0 0 0 - - -, f 8;
#X floatatom 123 123 5 0 0 0 - - -, f 5;
#X floatatom 265 159 5 0 0 0 - - -, f 5;
#X floatatom 487 133 5 0 0 0 - - -, f 5;
#X floatatom 630 171 5 0 0 0 - - -, f 5;
#X obj 212 253 t b f;
#X obj 582 265 t b f;
#X text 376 44 _GRAINs;
#X msg 713 116 0.771;
#X msg 60 91 0.338;
#X msg 447 61 0.574;
#X obj 116 215 + 1;
#X obj 144 266 - 2;
#X obj 480 234 + 1;
#X obj 508 266 - 2;
#X text 268 13 Lecture en boucle;
#X text 269 26 de X a Y \, en Z ms;
#X obj 116 351 line~;
#X obj 480 352 line~;
#X obj 447 40 r Gr1;
#X obj 60 70 r Gr2;
#X obj 713 94 r Gr3;
#X obj 352 92 r Gr4;
#X text 448 24 Mod 1;
#X text 60 54 Mod 2;
#X text 353 77 Mod 4;
#X text 712 77 Mod 3;
#X obj 141 48 r GrDef;
#X obj 288 76 r GrDef;
#X obj 509 58 r GrDef;
#X obj 640 92 r GrDef;
#X obj 235 544 *~;
#X msg 265 506 \$1 50;
#X obj 265 528 line~;
#X obj 433 536 *~;
#X msg 464 498 \$1 50;
#X obj 464 520 line~;
#X obj 116 376 tabread4~ Sax1Left;
#X obj 480 377 tabread4~ Sax1Right;
#X obj 582 243 r length1;
#X obj 212 230 r length1;
#X obj 182 166 r s1ech;
#X obj 546 178 r s1ech;
#X msg 652 196 1.5;
#X msg 288 187 1.5;
#X msg 352 114 0.881;
#X msg 141 69 0;
#X msg 509 81 0;
#X msg 288 100 0.881;
#X msg 640 114 0.858;
#X connect 0 0 13 0;
#X connect 0 0 49 0;
#X connect 1 0 3 0;
#X connect 2 0 32 0;
#X connect 3 0 54 0;
#X connect 4 0 0 0;
#X connect 4 0 39 0;
#X connect 5 0 2 0;
#X connect 5 0 40 0;
#X connect 6 0 1 2;
#X connect 6 0 12 1;
#X connect 6 0 36 0;
#X connect 7 0 6 0;
#X connect 7 0 10 0;
#X connect 12 0 1 0;
#X connect 13 0 50 0;
#X connect 14 0 27 0;
#X connect 14 0 47 0;
#X connect 15 0 17 0;
#X connect 16 0 31 0;
#X connect 17 0 53 0;
#X connect 18 0 14 0;
#X connect 18 0 37 0;
#X connect 19 0 16 0;
#X connect 19 0 38 0;
#X connect 20 0 15 2;
#X connect 20 0 26 1;
#X connect 20 0 35 0;
#X connect 21 0 20 0;
#X connect 21 0 24 0;
#X connect 26 0 15 0;
#X connect 27 0 48 0;
#X connect 28 0 68 0;
#X connect 28 0 71 0;
#X connect 31 0 27 0;
#X connect 31 1 27 1;
#X connect 32 0 13 0;
#X connect 32 1 13 1;
#X connect 33 0 26 0;
#X connect 34 0 12 0;
#X connect 41 0 20 0;
#X connect 41 1 20 1;
#X connect 42 0 6 0;
#X connect 42 1 6 1;
#X connect 44 0 5 0;
#X connect 45 0 18 0;
#X connect 46 0 4 0;
#X connect 47 0 15 0;
#X connect 48 0 15 1;
#X connect 49 0 1 0;
#X connect 50 0 1 1;
#X connect 53 0 73 0;
#X connect 54 0 74 0;
#X connect 55 0 46 0;
#X connect 56 0 45 0;
#X connect 57 0 44 0;
#X connect 58 0 81 0;
#X connect 63 0 82 0;
#X connect 64 0 84 0;
#X connect 64 0 80 0;
#X connect 65 0 83 0;
#X connect 66 0 85 0;
#X connect 66 0 79 0;
#X connect 67 0 29 0;
#X connect 68 0 69 0;
#X connect 69 0 67 1;
#X connect 70 0 30 0;
#X connect 71 0 72 0;
#X connect 72 0 70 1;
#X connect 73 0 67 0;
#X connect 74 0 70 0;
#X connect 75 0 42 0;
#X connect 76 0 41 0;
#X connect 77 0 16 1;
#X connect 77 0 14 1;
#X connect 78 0 2 1;
#X connect 78 0 0 1;
#X connect 79 0 7 0;
#X connect 80 0 21 0;
#X connect 81 0 19 0;
#X connect 82 0 18 0;
#X connect 83 0 4 0;
#X connect 84 0 19 0;
#X connect 85 0 5 0;
#X restore 612 52 pd Sax1Grains;
#N canvas 519 184 838 669 Sax3Grains 0;
#X obj 514 213 *;
#X obj 514 310 pack f f f;
#X obj 557 219 *;
#X msg 514 342 \$1 \, \$2 \$3;
#X obj 517 136 hsl 128 15 0 1 0 1 empty empty empty -2 -8 0 10 -262144
-1 -1 1384 1;
#X obj 560 174 hsl 128 15 0 1 0 1 empty empty empty -2 -8 0 10 -262144
-1 -1 8585 1;
#X obj 606 311 *;
#X obj 609 239 hsl 128 15 0 1 0 1 empty empty empty -2 -8 0 10 -262144
-1 -1 8400 1;
#X text 606 173 Arrivee;
#X text 563 134 Depart;
#X floatatom 707 254 6 0 0 0 - - -, f 6;
#X text 652 237 Duree;
#X obj 429 290 metro 2000;
#X obj 542 263 +;
#X obj 150 201 *;
#X obj 150 313 pack f f f;
#X obj 193 201 *;
#X msg 150 341 \$1 \, \$2 \$3;
#X obj 153 126 hsl 128 15 0 1 0 1 empty empty empty -2 -8 0 10 -262144
-1 -1 698 1;
#X obj 196 162 hsl 128 15 0 1 0 1 empty empty empty -2 -8 0 10 -262144
-1 -1 3391 1;
#X obj 235 296 *;
#X obj 238 228 hsl 128 15 0 1 0 1 empty empty empty -2 -8 0 10 -262144
-1 -1 3099 1;
#X text 242 161 Arrivee;
#X text 197 123 Depart;
#X floatatom 336 243 6 0 0 0 - - -, f 6;
#X text 283 225 Duree;
#X obj 89 255 metro 2000;
#X obj 178 258 +;
#X obj 400 436 vsl 15 80 0 1 0 0 empty GrainsGlob Vol_Grains -16 -10
0 10 -261234 -1 -1 0 1;
#X obj 269 587 throw~ OutL;
#X obj 468 579 throw~ OutR;
#X obj 178 227 t b f;
#X obj 542 239 t b f;
#X obj 89 228 tgl 15 0 empty Sax3go empty 17 7 0 10 -261234 -1 -1 0
1;
#X obj 429 269 tgl 15 0 empty Sax3go empty 17 7 0 10 -261234 -1 -1
0 1;
#X floatatom 260 313 8 0 0 0 - - -, f 8;
#X floatatom 628 330 8 0 0 0 - - -, f 8;
#X floatatom 157 141 5 0 0 0 - - -, f 5;
#X floatatom 299 177 5 0 0 0 - - -, f 5;
#X floatatom 521 151 5 0 0 0 - - -, f 5;
#X floatatom 664 189 5 0 0 0 - - -, f 5;
#X obj 246 271 t b f;
#X obj 616 283 t b f;
#X text 410 62 _GRAINs;
#X msg 747 134 0.771;
#X msg 94 109 0.338;
#X msg 386 132 0.771;
#X msg 481 79 0.574;
#X obj 150 233 + 1;
#X obj 178 284 - 2;
#X obj 514 252 + 1;
#X obj 542 284 - 2;
#X text 302 31 Lecture en boucle;
#X text 303 44 de X a Y \, en Z ms;
#X obj 150 369 line~;
#X obj 514 370 line~;
#X obj 481 58 r Gr1;
#X obj 94 88 r Gr2;
#X obj 747 112 r Gr3;
#X obj 386 110 r Gr4;
#X text 482 42 Mod 1;
#X text 94 72 Mod 2;
#X text 387 95 Mod 4;
#X text 746 95 Mod 3;
#X obj 175 66 r GrDef;
#X obj 322 94 r GrDef;
#X obj 543 76 r GrDef;
#X obj 674 110 r GrDef;
#X obj 269 562 *~;
#X msg 299 524 \$1 50;
#X obj 299 546 line~;
#X obj 467 554 *~;
#X msg 498 516 \$1 50;
#X obj 498 538 line~;
#X obj 150 394 tabread4~ Sax3Left;
#X obj 515 395 tabread4~ Sax3Right;
#X obj 246 248 r length3;
#X obj 616 261 r length3;
#X obj 708 181 r GrDef;
#X obj 343 172 r GrDef;
#X obj 216 184 r s3ech;
#X obj 580 196 r s3ech;
#X msg 175 87 0.055;
#X msg 322 118 0.267;
#X msg 343 194 0.244;
#X msg 543 99 0.109;
#X msg 674 132 0.676;
#X msg 708 203 0.6614;
#X connect 0 0 13 0;
#X connect 0 0 50 0;
#X connect 1 0 3 0;
#X connect 2 0 32 0;
#X connect 3 0 55 0;
#X connect 4 0 0 0;
#X connect 4 0 39 0;
#X connect 5 0 2 0;
#X connect 5 0 40 0;
#X connect 6 0 1 2;
#X connect 6 0 12 1;
#X connect 6 0 36 0;
#X connect 7 0 6 0;
#X connect 7 0 10 0;
#X connect 12 0 1 0;
#X connect 13 0 51 0;
#X connect 14 0 27 0;
#X connect 14 0 48 0;
#X connect 15 0 17 0;
#X connect 16 0 31 0;
#X connect 17 0 54 0;
#X connect 18 0 14 0;
#X connect 18 0 37 0;
#X connect 19 0 16 0;
#X connect 19 0 38 0;
#X connect 20 0 15 2;
#X connect 20 0 26 1;
#X connect 20 0 35 0;
#X connect 21 0 20 0;
#X connect 21 0 24 0;
#X connect 26 0 15 0;
#X connect 27 0 49 0;
#X connect 28 0 69 0;
#X connect 28 0 72 0;
#X connect 31 0 27 0;
#X connect 31 1 27 1;
#X connect 32 0 13 0;
#X connect 32 1 13 1;
#X connect 33 0 26 0;
#X connect 34 0 12 0;
#X connect 41 0 20 0;
#X connect 41 1 20 1;
#X connect 42 0 6 0;
#X connect 42 1 6 1;
#X connect 44 0 5 0;
#X connect 45 0 18 0;
#X connect 46 0 19 0;
#X connect 47 0 4 0;
#X connect 48 0 15 0;
#X connect 49 0 15 1;
#X connect 50 0 1 0;
#X connect 51 0 1 1;
#X connect 54 0 74 0;
#X connect 55 0 75 0;
#X connect 56 0 47 0;
#X connect 57 0 45 0;
#X connect 58 0 44 0;
#X connect 59 0 46 0;
#X connect 64 0 82 0;
#X connect 65 0 83 0;
#X connect 66 0 85 0;
#X connect 67 0 86 0;
#X connect 68 0 29 0;
#X connect 69 0 70 0;
#X connect 70 0 68 1;
#X connect 71 0 30 0;
#X connect 72 0 73 0;
#X connect 73 0 71 1;
#X connect 74 0 68 0;
#X connect 75 0 71 0;
#X connect 76 0 41 0;
#X connect 77 0 42 0;
#X connect 78 0 87 0;
#X connect 79 0 84 0;
#X connect 80 0 16 1;
#X connect 80 0 14 1;
#X connect 81 0 2 1;
#X connect 81 0 0 1;
#X connect 82 0 18 0;
#X connect 83 0 19 0;
#X connect 84 0 21 0;
#X connect 85 0 4 0;
#X connect 86 0 5 0;
#X connect 87 0 7 0;
#X restore 612 96 pd Sax3Grains;
#N canvas 136 168 838 669 Sax2Grains 0;
#X obj 496 212 *;
#X obj 496 309 pack f f f;
#X obj 539 212 *;
#X msg 496 341 \$1 \, \$2 \$3;
#X obj 499 135 hsl 128 15 0 1 0 1 empty empty empty -2 -8 0 10 -262144
-1 -1 394 1;
#X obj 542 173 hsl 128 15 0 1 0 1 empty empty empty -2 -8 0 10 -262144
-1 -1 4788 1;
#X obj 588 310 *;
#X obj 592 238 hsl 128 15 0 1 0 1 empty empty empty -2 -8 0 10 -262144
-1 -1 8099 1;
#X text 588 172 Arrivee;
#X text 545 133 Depart;
#X floatatom 689 253 6 0 0 0 - - -, f 6;
#X text 634 236 Duree;
#X obj 412 292 metro 2000;
#X obj 524 262 +;
#X obj 132 200 *;
#X obj 132 312 pack f f f;
#X obj 175 200 *;
#X msg 132 340 \$1 \, \$2 \$3;
#X obj 135 125 hsl 128 15 0 1 0 1 empty empty empty -2 -8 0 10 -262144
-1 -1 1486 1;
#X obj 178 161 hsl 128 15 0 1 0 1 empty empty empty -2 -8 0 10 -262144
-1 -1 6096 1;
#X obj 217 295 *;
#X obj 220 227 hsl 128 15 0 1 0 1 empty empty empty -2 -8 0 10 -262144
-1 -1 7607 1;
#X text 224 160 Arrivee;
#X text 179 122 Depart;
#X floatatom 318 242 6 0 0 0 - - -, f 6;
#X text 265 224 Duree;
#X obj 71 254 metro 2000;
#X obj 160 257 +;
#X obj 380 434 vsl 15 80 0 1 0 0 empty GrainsGlob Vol_Grains -16 -10
0 10 -261234 -1 -1 0 1;
#X obj 251 586 throw~ OutL;
#X obj 450 578 throw~ OutR;
#X obj 160 226 t b f;
#X obj 524 238 t b f;
#X obj 71 226 tgl 15 0 empty Sax2go empty 17 7 0 10 -261234 -1 -1 0
1;
#X obj 412 271 tgl 15 0 empty Sax2go empty 17 7 0 10 -261234 -1 -1
0 1;
#X floatatom 242 312 8 0 0 0 - - -, f 8;
#X floatatom 610 329 8 0 0 0 - - -, f 8;
#X floatatom 139 140 5 0 0 0 - - -, f 5;
#X floatatom 281 176 5 0 0 0 - - -, f 5;
#X floatatom 503 150 5 0 0 0 - - -, f 5;
#X floatatom 646 188 5 0 0 0 - - -, f 5;
#X obj 228 270 t b f;
#X obj 598 282 t b f;
#X text 392 61 _GRAINs;
#X msg 729 133 0.771;
#X msg 76 108 0.338;
#X msg 368 131 0.771;
#X msg 463 78 0.574;
#X obj 132 232 + 1;
#X obj 160 283 - 2;
#X obj 496 251 + 1;
#X obj 524 283 - 2;
#X text 288 28 Lecture en boucle;
#X text 285 43 de X a Y \, en Z ms;
#X obj 132 368 line~;
#X obj 496 369 line~;
#X obj 463 57 r Gr1;
#X obj 76 87 r Gr2;
#X obj 729 111 r Gr3;
#X obj 368 109 r Gr4;
#X text 464 41 Mod 1;
#X text 76 71 Mod 2;
#X text 369 94 Mod 4;
#X text 728 94 Mod 3;
#X obj 157 65 r GrDef;
#X obj 304 93 r GrDef;
#X obj 525 75 r GrDef;
#X obj 656 109 r GrDef;
#X obj 251 561 *~;
#X msg 281 523 \$1 50;
#X obj 281 545 line~;
#X obj 449 553 *~;
#X msg 480 515 \$1 50;
#X obj 480 537 line~;
#X obj 132 393 tabread4~ Sax2Left;
#X obj 496 394 tabread4~ Sax2Right;
#X obj 228 247 r length2;
#X obj 598 260 r length2;
#X obj 323 169 r GrDef;
#X obj 692 183 r GrDef;
#X obj 198 183 r s2ech;
#X obj 562 195 r s2ech;
#X msg 157 86 0.117;
#X msg 304 117 0.48;
#X msg 323 193 0.599;
#X msg 525 98 0.031;
#X msg 656 131 0.377;
#X msg 692 207 0.6377;
#X connect 0 0 13 0;
#X connect 0 0 50 0;
#X connect 1 0 3 0;
#X connect 2 0 32 0;
#X connect 3 0 55 0;
#X connect 4 0 0 0;
#X connect 4 0 39 0;
#X connect 5 0 2 0;
#X connect 5 0 40 0;
#X connect 6 0 1 2;
#X connect 6 0 12 1;
#X connect 6 0 36 0;
#X connect 7 0 6 0;
#X connect 7 0 10 0;
#X connect 12 0 1 0;
#X connect 13 0 51 0;
#X connect 14 0 27 0;
#X connect 14 0 48 0;
#X connect 15 0 17 0;
#X connect 16 0 31 0;
#X connect 17 0 54 0;
#X connect 18 0 14 0;
#X connect 18 0 37 0;
#X connect 19 0 16 0;
#X connect 19 0 38 0;
#X connect 20 0 15 2;
#X connect 20 0 26 1;
#X connect 20 0 35 0;
#X connect 21 0 20 0;
#X connect 21 0 24 0;
#X connect 26 0 15 0;
#X connect 27 0 49 0;
#X connect 28 0 69 0;
#X connect 28 0 72 0;
#X connect 31 0 27 0;
#X connect 31 1 27 1;
#X connect 32 0 13 0;
#X connect 32 1 13 1;
#X connect 33 0 26 0;
#X connect 34 0 12 0;
#X connect 41 0 20 0;
#X connect 41 1 20 1;
#X connect 42 0 6 0;
#X connect 42 1 6 1;
#X connect 44 0 5 0;
#X connect 45 0 18 0;
#X connect 46 0 19 0;
#X connect 47 0 4 0;
#X connect 48 0 15 0;
#X connect 49 0 15 1;
#X connect 50 0 1 0;
#X connect 51 0 1 1;
#X connect 54 0 74 0;
#X connect 55 0 75 0;
#X connect 56 0 47 0;
#X connect 57 0 45 0;
#X connect 58 0 44 0;
#X connect 59 0 46 0;
#X connect 64 0 82 0;
#X connect 65 0 83 0;
#X connect 66 0 85 0;
#X connect 67 0 86 0;
#X connect 68 0 29 0;
#X connect 69 0 70 0;
#X connect 70 0 68 1;
#X connect 71 0 30 0;
#X connect 72 0 73 0;
#X connect 73 0 71 1;
#X connect 74 0 68 0;
#X connect 75 0 71 0;
#X connect 76 0 41 0;
#X connect 77 0 42 0;
#X connect 78 0 84 0;
#X connect 79 0 87 0;
#X connect 80 0 16 1;
#X connect 80 0 14 1;
#X connect 81 0 2 1;
#X connect 81 0 0 1;
#X connect 82 0 18 0;
#X connect 83 0 19 0;
#X connect 84 0 21 0;
#X connect 85 0 4 0;
#X connect 86 0 5 0;
#X connect 87 0 7 0;
#X restore 612 74 pd Sax2Grains;
#X obj 223 46 HuzzahReceive;
#X obj 711 52 tgl 15 0 Sax1go empty empty 17 7 0 10 -261234 -1 -1 0
1;
#X obj 711 75 tgl 15 0 Sax2go empty empty 17 7 0 10 -261234 -1 -1 0
1;
#X obj 711 98 tgl 15 0 Sax3go empty empty 17 7 0 10 -261234 -1 -1 0
1;
#X obj 751 42 vsl 15 80 0 1 0 0 GrainsGlob empty Vol_Grains -16 -10
0 10 -261234 -1 -1 0 1;
#X text 414 31 Arrays;
#X text 622 34 Loopers;
#X text 224 26 OSC-RX;
#N canvas 1164 581 420 332 MasterOut 0;
#X obj 88 176 *~;
#X obj 144 110 line~;
#X obj 144 66 r vol;
#X obj 44 87 catch~ OutL;
#X obj 208 93 catch~ OutR;
#X obj 243 176 *~;
#X obj 298 110 line~;
#X obj 298 66 r vol;
#X msg 144 88 \$1 20;
#X msg 298 88 \$1 20;
#X obj 186 253 dac~;
#X obj 88 204 clip~ -0.99 0.99;
#X obj 242 203 clip~ -0.99 0.99;
#X connect 0 0 11 0;
#X connect 1 0 0 1;
#X connect 2 0 8 0;
#X connect 3 0 0 0;
#X connect 4 0 5 0;
#X connect 5 0 12 0;
#X connect 6 0 5 1;
#X connect 7 0 9 0;
#X connect 8 0 1 0;
#X connect 9 0 6 0;
#X connect 11 0 10 0;
#X connect 12 0 10 1;
#X restore 57 273 pd MasterOut;
#N canvas 1029 131 591 443 Sax2play 0;
#X obj 150 152 line~;
#X obj 302 60 r length2;
#X obj 276 30 r s2ech;
#X obj 326 152 line~;
#X obj 326 177 tabread4~ Sax2Right;
#X obj 150 177 tabread4~ Sax2Left;
#X obj 255 256 vsl 15 80 0 1 0 0 empty GrainsGlob Vol_Grains -16 -10
0 10 -261234 -1 -1 0 1;
#X obj 151 402 throw~ OutL;
#X obj 326 402 throw~ OutR;
#X obj 151 377 *~;
#X msg 181 339 \$1 50;
#X obj 181 361 line~;
#X obj 325 377 *~;
#X msg 356 339 \$1 50;
#X obj 356 361 line~;
#X obj 247 85 pack f f f;
#X msg 150 124 0 \, \$2 \$3;
#X msg 326 124 0 \, \$2 \$3;
#X obj 215 11 bng 15 250 50 0 empty empty empty 17 7 0 10 -262144 -1
-1;
#X floatatom 330 92 5 0 0 0 - - -, f 5;
#X connect 0 0 5 0;
#X connect 1 0 15 2;
#X connect 1 0 19 0;
#X connect 2 0 15 1;
#X connect 3 0 4 0;
#X connect 4 0 12 0;
#X connect 5 0 9 0;
#X connect 6 0 10 0;
#X connect 6 0 13 0;
#X connect 9 0 7 0;
#X connect 10 0 11 0;
#X connect 11 0 9 1;
#X connect 12 0 8 0;
#X connect 13 0 14 0;
#X connect 14 0 12 1;
#X connect 15 0 16 0;
#X connect 15 0 17 0;
#X connect 16 0 0 0;
#X connect 17 0 3 0;
#X connect 18 0 15 0;
#X restore 505 73 pd Sax2play;
#N canvas 496 270 612 498 Sax3play 0;
#X obj 150 152 line~;
#X obj 326 152 line~;
#X obj 255 256 vsl 15 80 0 1 0 0 empty GrainsGlob Vol_Grains -16 -10
0 10 -261234 -1 -1 0 1;
#X obj 151 402 throw~ OutL;
#X obj 326 402 throw~ OutR;
#X obj 151 377 *~;
#X msg 181 339 \$1 50;
#X obj 181 361 line~;
#X obj 325 377 *~;
#X msg 356 339 \$1 50;
#X obj 356 361 line~;
#X obj 244 85 pack f f f;
#X msg 150 124 0 \, \$2 \$3;
#X msg 326 124 0 \, \$2 \$3;
#X obj 216 1 bng 15 250 50 0 empty empty empty 17 7 0 10 -262144 -1
-1;
#X floatatom 324 88 8 0 0 0 - - -, f 8;
#X obj 273 29 r s3ech;
#X obj 304 57 r length3;
#X obj 150 177 tabread4~ Sax3Left;
#X obj 326 177 tabread4~ Sax3Right;
#X connect 0 0 18 0;
#X connect 1 0 19 0;
#X connect 2 0 6 0;
#X connect 2 0 9 0;
#X connect 5 0 3 0;
#X connect 6 0 7 0;
#X connect 7 0 5 1;
#X connect 8 0 4 0;
#X connect 9 0 10 0;
#X connect 10 0 8 1;
#X connect 11 0 12 0;
#X connect 11 0 13 0;
#X connect 12 0 0 0;
#X connect 13 0 1 0;
#X connect 14 0 11 0;
#X connect 16 0 11 1;
#X connect 17 0 11 2;
#X connect 17 0 15 0;
#X connect 18 0 5 0;
#X connect 19 0 8 0;
#X restore 505 93 pd Sax3play;
#N canvas 703 149 591 443 Sax1play 0;
#X obj 150 152 line~;
#X obj 326 152 line~;
#X obj 255 256 vsl 15 80 0 1 0 0 empty GrainsGlob Vol_Grains -16 -10
0 10 -261234 -1 -1 0 1;
#X obj 151 402 throw~ OutL;
#X obj 326 402 throw~ OutR;
#X obj 151 377 *~;
#X msg 181 339 \$1 50;
#X obj 181 361 line~;
#X obj 325 377 *~;
#X msg 356 339 \$1 50;
#X obj 356 361 line~;
#X obj 232 84 pack f f f;
#X msg 150 124 0 \, \$2 \$3;
#X msg 326 124 0 \, \$2 \$3;
#X obj 232 29 bng 15 250 50 0 empty empty empty 17 7 0 10 -262144 -1
-1;
#X floatatom 309 84 5 0 0 0 - - -, f 5;
#X obj 290 56 r length1;
#X obj 261 28 r s1ech;
#X obj 150 177 tabread4~ Sax1Left;
#X obj 326 177 tabread4~ Sax1Right;
#X connect 0 0 18 0;
#X connect 1 0 19 0;
#X connect 2 0 6 0;
#X connect 2 0 9 0;
#X connect 5 0 3 0;
#X connect 6 0 7 0;
#X connect 7 0 5 1;
#X connect 8 0 4 0;
#X connect 9 0 10 0;
#X connect 10 0 8 1;
#X connect 11 0 12 0;
#X connect 11 0 13 0;
#X connect 12 0 0 0;
#X connect 13 0 1 0;
#X connect 14 0 11 0;
#X connect 16 0 11 2;
#X connect 16 0 15 0;
#X connect 17 0 11 1;
#X connect 18 0 5 0;
#X connect 19 0 8 0;
#X restore 504 52 pd Sax1play;
#X text 496 31 lecture simple;
#X obj 720 201 s GrDef;
#X obj 720 179 bng 15 250 50 0 empty empty empty 17 7 0 10 -262144
-1 -1;
#X text 740 175 chaos button;
#X obj 681 157 loadbang;
#N canvas 392 691 480 304 OSCSimltr 0;
#X obj 143 119 vsl 15 80 0 300 0 0 empty empty empty 0 -9 0 10 -262144
-1 -1 0 1;
#X obj 170 119 vsl 15 80 0 300 0 0 empty empty empty 0 -9 0 10 -262144
-1 -1 0 1;
#X obj 196 119 vsl 15 80 0 300 0 0 empty empty empty 0 -9 0 10 -262144
-1 -1 0 1;
#X obj 222 119 vsl 15 80 0 300 0 0 empty empty empty 0 -9 0 10 -262144
-1 -1 0 1;
#X obj 115 119 vsl 15 80 0 300 0 0 empty empty empty 0 -9 0 10 -262144
-1 -1 5249 1;
#X obj 30 230 s snsr1;
#X obj 89 230 s snsr2;
#X obj 148 230 s snsr3;
#X obj 207 230 s snsr4;
#X obj 266 230 s snsr5;
#X text 119 121 1;
#X text 145 121 2;
#X text 172 121 3;
#X text 199 122 4;
#X text 224 121 5;
#X obj 52 26 r ful1;
#X floatatom 52 77 5 0 0 0 - - -, f 5;
#X obj 52 52 * 0.12;
#X floatatom 108 77 5 0 0 0 - - -, f 5;
#X obj 108 52 * 0.12;
#X obj 108 26 r ful2;
#X floatatom 163 77 5 0 0 0 - - -, f 5;
#X obj 163 52 * 0.12;
#X floatatom 217 77 5 0 0 0 - - -, f 5;
#X obj 217 52 * 0.12;
#X floatatom 272 77 5 0 0 0 - - -, f 5;
#X obj 272 52 * 0.12;
#X obj 163 26 r ful3;
#X obj 217 26 r ful4;
#X obj 272 26 r ful5;
#X text 257 136 Envois de 0 a 300 simulant la réception de messages
OSC provenant des capteurs de lumiere;
#X connect 0 0 6 0;
#X connect 1 0 7 0;
#X connect 2 0 8 0;
#X connect 3 0 9 0;
#X connect 4 0 5 0;
#X connect 15 0 17 0;
#X connect 16 0 4 0;
#X connect 17 0 16 0;
#X connect 18 0 0 0;
#X connect 19 0 18 0;
#X connect 20 0 19 0;
#X connect 21 0 1 0;
#X connect 22 0 21 0;
#X connect 23 0 2 0;
#X connect 24 0 23 0;
#X connect 25 0 3 0;
#X connect 26 0 25 0;
#X connect 27 0 22 0;
#X connect 28 0 24 0;
#X connect 29 0 26 0;
#X coords 0 -1 1 1 150 115 1 100 100;
#X restore 195 82 pd OSCSimltr;
#N canvas 3 83 505 311 hanning 0;
#N canvas 0 50 450 250 (subpatch) 0;
#X array hanning 512 float 3;
#A 0 0 3.77893e-005 0.000151187 0.000340134 0.00060463 0.000944614
0.00136009 0.0018509 0.00241706 0.00305843 0.00377494 0.00456646 0.0054329
0.00637409 0.00738993 0.00848025 0.00964487 0.0108836 0.0121963 0.0135828
0.0150428 0.0165761 0.0181825 0.0198617 0.0216135 0.0234377 0.0253339
0.0273018 0.0293413 0.0314519 0.0336333 0.0358852 0.0382074 0.0405993
0.0430607 0.0455911 0.0481903 0.0508577 0.0535931 0.056396 0.0592659
0.0622025 0.0652052 0.0682737 0.0714074 0.074606 0.0778689 0.0811956
0.0845855 0.0880384 0.0915534 0.0951303 0.0987684 0.102467 0.106226
0.110044 0.113922 0.117857 0.121851 0.125901 0.130008 0.134172 0.13839
0.142663 0.14699 0.151371 0.155804 0.160289 0.164826 0.169413 0.17405
0.178737 0.183472 0.188255 0.193085 0.197961 0.202884 0.207851 0.212862
0.217916 0.223014 0.228153 0.233333 0.238554 0.243814 0.249113 0.25445
0.259823 0.265234 0.270679 0.27616 0.281674 0.287221 0.292801 0.298411
0.304052 0.309723 0.315423 0.32115 0.326905 0.332686 0.338492 0.344322
0.350176 0.356053 0.361951 0.36787 0.373809 0.379768 0.385744 0.391738
0.397748 0.403774 0.409814 0.415868 0.421934 0.428012 0.434101 0.440201
0.446309 0.452425 0.458549 0.464678 0.470813 0.476953 0.483096 0.489241
0.495388 0.501536 0.507684 0.51383 0.519975 0.526116 0.532254 0.538386
0.544513 0.550633 0.556745 0.562849 0.568943 0.575027 0.5811 0.58716
0.593207 0.59924 0.605258 0.61126 0.617245 0.623212 0.629161 0.635091
0.641 0.646887 0.652753 0.658595 0.664413 0.670207 0.675974 0.681716
0.687429 0.693115 0.698771 0.704397 0.709992 0.715555 0.721086 0.726584
0.732047 0.737475 0.742867 0.748222 0.75354 0.75882 0.76406 0.769261
0.774421 0.779539 0.784615 0.789648 0.794637 0.799582 0.804482 0.809335
0.814142 0.818901 0.823612 0.828274 0.832886 0.837448 0.841959 0.846418
0.850825 0.855179 0.859479 0.863725 0.867916 0.872051 0.87613 0.880152
0.884117 0.888024 0.891872 0.89566 0.899389 0.903058 0.906665 0.910211
0.913695 0.917117 0.920475 0.92377 0.927001 0.930167 0.933268 0.936304
0.939273 0.942177 0.945013 0.947783 0.950484 0.953117 0.955682 0.958178
0.960605 0.962962 0.965249 0.967466 0.969612 0.971687 0.973691 0.975623
0.977483 0.979271 0.980987 0.98263 0.984199 0.985696 0.987119 0.988469
0.989745 0.990947 0.992074 0.993127 0.994106 0.995009 0.995839 0.996593
0.997272 0.997875 0.998404 0.998857 0.999235 0.999537 0.999764 0.999915
0.999991 0.999991 0.999915 0.999764 0.999537 0.999235 0.998857 0.998404
0.997876 0.997272 0.996593 0.995839 0.99501 0.994106 0.993127 0.992074
0.990947 0.989745 0.988469 0.98712 0.985697 0.9842 0.98263 0.980987
0.979272 0.977484 0.975624 0.973691 0.971688 0.969613 0.967467 0.96525
0.962963 0.960606 0.958179 0.955683 0.953118 0.950485 0.947784 0.945014
0.942178 0.939275 0.936305 0.933269 0.930168 0.927002 0.923771 0.920476
0.917118 0.913697 0.910213 0.906667 0.903059 0.899391 0.895662 0.891873
0.888025 0.884119 0.880154 0.876132 0.872053 0.867918 0.863727 0.859481
0.855181 0.850827 0.84642 0.841961 0.83745 0.832888 0.828276 0.823614
0.818903 0.814144 0.809337 0.804484 0.799584 0.794639 0.78965 0.784617
0.779541 0.774423 0.769263 0.764063 0.758822 0.753542 0.748225 0.742869
0.737477 0.732049 0.726586 0.721088 0.715558 0.709994 0.704399 0.698773
0.693117 0.687432 0.681718 0.675977 0.670209 0.664415 0.658597 0.652755
0.64689 0.641002 0.635093 0.629164 0.623215 0.617248 0.611262 0.60526
0.599242 0.593209 0.587162 0.581102 0.57503 0.568946 0.562851 0.556748
0.550635 0.544515 0.538389 0.532256 0.526119 0.519978 0.513833 0.507687
0.501539 0.495391 0.489244 0.483098 0.476955 0.470816 0.464681 0.458551
0.452428 0.446311 0.440203 0.434104 0.428015 0.421937 0.41587 0.409816
0.403776 0.397751 0.391741 0.385747 0.37977 0.373812 0.367873 0.361953
0.356055 0.350178 0.344324 0.338494 0.332688 0.326907 0.321153 0.315425
0.309726 0.304055 0.298414 0.292803 0.287224 0.281676 0.276162 0.270682
0.265236 0.259826 0.254452 0.249115 0.243816 0.238556 0.233335 0.228155
0.223016 0.217919 0.212864 0.207853 0.202886 0.197963 0.193087 0.188257
0.183474 0.178739 0.174052 0.169415 0.164828 0.160291 0.155806 0.151373
0.146992 0.142665 0.138392 0.134173 0.13001 0.125903 0.121852 0.117859
0.113923 0.110046 0.106227 0.102469 0.0987698 0.0951318 0.0915549 0.0880398
0.084587 0.081197 0.0778703 0.0746073 0.0714087 0.068275 0.0652064
0.0622037 0.0592671 0.0563971 0.0535942 0.0508589 0.0481914 0.0455922
0.0430617 0.0406003 0.0382084 0.0358862 0.0336342 0.0314528 0.0293421
0.0273027 0.0253347 0.0234385 0.0216143 0.0198624 0.0181831 0.0165767
0.0150433 0.0135834 0.0121969 0.0108841 0.00964534 0.0084807 0.00739038
0.00637454 0.00543326 0.00456682 0.00377527 0.0030587 0.0024173 0.00185114
0.00136024 0.000944763 0.000604779 0.000340223 0.000151247 3.78191e-005
0;
#X coords 0 1 512 -1 200 140 1 0 0;
#X restore 258 37 graph;
#X obj 72 58 loadbang;
#X msg 70 85 512;
#X obj 70 112 until;
#X obj 104 139 + 1;
#X obj 69 266 tabwrite hanning;
#X obj 70 166 t f f;
#X msg 174 93 0;
#X obj 70 138 f 0;
#X obj 69 215 expr -0.5 * cos(2 * 3.14159 * $f1 / 511) + 0.5;
#X connect 1 0 2 0;
#X connect 2 0 3 0;
#X connect 3 0 8 0;
#X connect 4 0 8 1;
#X connect 6 0 9 0;
#X connect 6 1 5 1;
#X connect 7 0 8 1;
#X connect 8 0 4 0;
#X connect 8 0 6 0;
#X connect 9 0 5 0;
#X restore 64 299 pd hanning;
#X obj 519 234 tgl 25 0 GranTog empty empty 17 7 0 10 -262144 -1 -1
0 1;
#X obj 409 215 granulateur1 1;
#X obj 409 238 granulateur2 2;
#X obj 409 261 granulateur3 3;
#X text 184 198 Simule l'intensite recue;
#X text 209 212 par les capteurs;
#X text 545 239 Granule;
#N canvas 223 155 614 496 visuGEM 1;
#X obj 116 250 gemwin;
#X msg 40 195 create \, 1;
#X msg 142 219 destroy;
#X msg 116 157 reset \, dimen 1280 960 \, create \, 1;
#X obj 432 143 loadbang;
#X msg 432 169 24;
#X floatatom 432 191 5 0 0 0 - - -, f 5;
#X obj 432 210 expr 1000 / $f1;
#X floatatom 432 232 5 0 0 0 - - -, f 5;
#X obj 379 254 metro 10;
#X obj 379 230 tgl 15 0 empty empty empty 17 7 0 10 -262144 -1 -1 1
1;
#X obj 379 278 s FPSmetro;
#N canvas 147 55 700 667 losange1 0;
#X obj 46 31 inlet;
#X obj 46 53 gemhead;
#X obj 117 106 translateXYZ;
#X floatatom 124 49 5 0 0 0 - - -, f 5;
#X floatatom 167 49 5 0 0 0 - - -, f 5;
#X floatatom 210 49 5 0 0 0 - - -, f 5;
#X obj 276 242 rotateXYZ;
#X obj 423 459 colorRGB;
#X obj 381 51 loadbang;
#X msg 262 93 0.025;
#X msg 309 93 -30;
#X msg 351 94 30;
#X msg 398 96 0.05;
#X msg 442 97 -30;
#X floatatom 398 125 5 0 0 0 - - -, f 5;
#X msg 486 97 30;
#X floatatom 262 125 5 0 0 0 - - -, f 5;
#X floatatom 309 125 5 0 0 0 - - -, f 5;
#X floatatom 351 125 5 0 0 0 - - -, f 5;
#X floatatom 442 126 5 0 0 0 - - -, f 5;
#X floatatom 486 126 5 0 0 0 - - -, f 5;
#X obj 297 152 lfo~;
#X obj 431 153 lfo~;
#X obj 297 174 snapshot~;
#X obj 431 175 snapshot~;
#X msg 384 189 45;
#X floatatom 297 195 5 0 0 0 - - -, f 5;
#X floatatom 431 197 5 0 0 0 - - -, f 5;
#X floatatom 414 402 5 0 0 0 - - -, f 5;
#X floatatom 455 402 5 0 0 0 - - -, f 5;
#X floatatom 497 402 5 0 0 0 - - -, f 5;
#X floatatom 539 402 5 0 0 0 - - -, f 5;
#X obj 435 582 rectangle;
#X obj 476 506 loadbang;
#X msg 516 537 2;
#X floatatom 516 560 5 0 0 0 - - -, f 5;
#X msg 472 538 2;
#X floatatom 472 560 5 0 0 0 - - -, f 5;
#X msg 349 549 draw line;
#X obj 517 158 r FPSmetro;
#X connect 0 0 1 0;
#X connect 1 0 2 0;
#X connect 2 0 6 0;
#X connect 3 0 2 1;
#X connect 4 0 2 2;
#X connect 5 0 2 3;
#X connect 6 0 7 0;
#X connect 7 0 32 0;
#X connect 8 0 9 0;
#X connect 8 0 10 0;
#X connect 8 0 11 0;
#X connect 8 0 12 0;
#X connect 8 0 13 0;
#X connect 8 0 15 0;
#X connect 8 0 25 0;
#X connect 9 0 16 0;
#X connect 10 0 17 0;
#X connect 11 0 18 0;
#X connect 12 0 14 0;
#X connect 13 0 19 0;
#X connect 14 0 22 0;
#X connect 15 0 20 0;
#X connect 16 0 21 0;
#X connect 17 0 21 1;
#X connect 18 0 21 2;
#X connect 19 0 22 1;
#X connect 20 0 22 2;
#X connect 21 0 23 0;
#X connect 22 0 24 0;
#X connect 23 0 26 0;
#X connect 24 0 27 0;
#X connect 25 0 6 3;
#X connect 26 0 6 1;
#X connect 27 0 6 2;
#X connect 28 0 7 1;
#X connect 29 0 7 2;
#X connect 30 0 7 3;
#X connect 31 0 7 4;
#X connect 33 0 34 0;
#X connect 33 0 36 0;
#X connect 33 0 38 0;
#X connect 34 0 35 0;
#X connect 35 0 32 2;
#X connect 36 0 37 0;
#X connect 37 0 32 1;
#X connect 38 0 32 0;
#X connect 39 0 23 0;
#X connect 39 0 24 0;
#X restore 90 395 pd losange1;
#N canvas 147 55 700 667 losange2 0;
#X obj 77 151 inlet;
#X obj 77 173 gemhead;
#X obj 148 226 translateXYZ;
#X floatatom 155 169 5 0 0 0 - - -, f 5;
#X floatatom 198 169 5 0 0 0 - - -, f 5;
#X floatatom 241 169 5 0 0 0 - - -, f 5;
#X obj 307 362 rotateXYZ;
#X obj 423 459 colorRGB;
#X obj 412 171 loadbang;
#X msg 340 213 -30;
#X msg 382 214 30;
#X msg 473 217 -30;
#X floatatom 429 245 5 0 0 0 - - -, f 5;
#X msg 517 217 30;
#X floatatom 293 245 5 0 0 0 - - -, f 5;
#X floatatom 340 245 5 0 0 0 - - -, f 5;
#X floatatom 382 245 5 0 0 0 - - -, f 5;
#X floatatom 473 246 5 0 0 0 - - -, f 5;
#X floatatom 517 246 5 0 0 0 - - -, f 5;
#X obj 328 273 lfo~;
#X obj 462 273 lfo~;
#X obj 328 295 snapshot~;
#X obj 462 295 snapshot~;
#X msg 415 309 45;
#X floatatom 328 316 5 0 0 0 - - -, f 5;
#X floatatom 462 317 5 0 0 0 - - -, f 5;
#X floatatom 414 402 5 0 0 0 - - -, f 5;
#X floatatom 455 402 5 0 0 0 - - -, f 5;
#X floatatom 497 402 5 0 0 0 - - -, f 5;
#X floatatom 539 402 5 0 0 0 - - -, f 5;
#X obj 435 582 rectangle;
#X obj 476 506 loadbang;
#X msg 516 537 2;
#X floatatom 516 560 5 0 0 0 - - -, f 5;
#X msg 472 538 2;
#X floatatom 472 560 5 0 0 0 - - -, f 5;
#X msg 349 549 draw line;
#X msg 293 213 0.05;
#X msg 429 216 0.025;
#X obj 562 278 r FPSmetro;
#X obj 185 82 loadbang;
#X msg 156 131 0.75;
#X msg 199 131 0;
#X msg 246 129 0.5;
#X connect 0 0 1 0;
#X connect 1 0 2 0;
#X connect 2 0 6 0;
#X connect 3 0 2 1;
#X connect 4 0 2 2;
#X connect 5 0 2 3;
#X connect 6 0 7 0;
#X connect 7 0 30 0;
#X connect 8 0 37 0;
#X connect 8 0 9 0;
#X connect 8 0 10 0;
#X connect 8 0 38 0;
#X connect 8 0 11 0;
#X connect 8 0 13 0;
#X connect 8 0 23 0;
#X connect 9 0 15 0;
#X connect 10 0 16 0;
#X connect 11 0 17 0;
#X connect 12 0 20 0;
#X connect 13 0 18 0;
#X connect 14 0 19 0;
#X connect 15 0 19 1;
#X connect 16 0 19 2;
#X connect 17 0 20 1;
#X connect 18 0 20 2;
#X connect 19 0 21 0;
#X connect 20 0 22 0;
#X connect 21 0 24 0;
#X connect 22 0 25 0;
#X connect 23 0 6 3;
#X connect 24 0 6 1;
#X connect 25 0 6 2;
#X connect 26 0 7 1;
#X connect 27 0 7 2;
#X connect 28 0 7 3;
#X connect 29 0 7 4;
#X connect 31 0 32 0;
#X connect 31 0 34 0;
#X connect 31 0 36 0;
#X connect 32 0 33 0;
#X connect 33 0 30 2;
#X connect 34 0 35 0;
#X connect 35 0 30 1;
#X connect 36 0 30 0;
#X connect 37 0 14 0;
#X connect 38 0 12 0;
#X connect 39 0 21 0;
#X connect 39 0 22 0;
#X connect 40 0 41 0;
#X connect 40 0 42 0;
#X connect 40 0 43 0;
#X connect 41 0 3 0;
#X connect 42 0 4 0;
#X connect 43 0 5 0;
#X restore 176 395 pd losange2;
#N canvas 147 55 700 667 losange3 0;
#X obj 67 131 inlet;
#X obj 67 153 gemhead;
#X obj 138 206 translateXYZ;
#X floatatom 145 149 5 0 0 0 - - -, f 5;
#X floatatom 188 149 5 0 0 0 - - -, f 5;
#X floatatom 231 149 5 0 0 0 - - -, f 5;
#X obj 297 342 rotateXYZ;
#X obj 423 459 colorRGB;
#X obj 402 151 loadbang;
#X msg 330 193 -30;
#X msg 372 194 30;
#X msg 419 196 0.05;
#X msg 463 197 -30;
#X floatatom 419 225 5 0 0 0 - - -, f 5;
#X msg 507 197 30;
#X floatatom 283 225 5 0 0 0 - - -, f 5;
#X floatatom 330 225 5 0 0 0 - - -, f 5;
#X floatatom 372 225 5 0 0 0 - - -, f 5;
#X floatatom 463 226 5 0 0 0 - - -, f 5;
#X floatatom 507 226 5 0 0 0 - - -, f 5;
#X obj 318 252 lfo~;
#X obj 452 253 lfo~;
#X obj 318 274 snapshot~;
#X obj 452 275 snapshot~;
#X msg 405 289 45;
#X floatatom 318 295 5 0 0 0 - - -, f 5;
#X floatatom 452 297 5 0 0 0 - - -, f 5;
#X floatatom 414 402 5 0 0 0 - - -, f 5;
#X floatatom 455 402 5 0 0 0 - - -, f 5;
#X floatatom 497 402 5 0 0 0 - - -, f 5;
#X floatatom 539 402 5 0 0 0 - - -, f 5;
#X obj 435 582 rectangle;
#X obj 476 506 loadbang;
#X msg 516 537 2;
#X floatatom 516 560 5 0 0 0 - - -, f 5;
#X msg 472 538 2;
#X floatatom 472 560 5 0 0 0 - - -, f 5;
#X msg 349 549 draw line;
#X msg 231 122 0.5;
#X obj 188 73 loadbang;
#X obj 546 258 r FPSmetro;
#X msg 188 121 0.75;
#X msg 145 122 0;
#X msg 283 193 0.0125;
#X connect 0 0 1 0;
#X connect 1 0 2 0;
#X connect 2 0 6 0;
#X connect 3 0 2 1;
#X connect 4 0 2 2;
#X connect 5 0 2 3;
#X connect 6 0 7 0;
#X connect 7 0 31 0;
#X connect 8 0 43 0;
#X connect 8 0 9 0;
#X connect 8 0 10 0;
#X connect 8 0 11 0;
#X connect 8 0 12 0;
#X connect 8 0 14 0;
#X connect 8 0 24 0;
#X connect 9 0 16 0;
#X connect 10 0 17 0;
#X connect 11 0 13 0;
#X connect 12 0 18 0;
#X connect 13 0 21 0;
#X connect 14 0 19 0;
#X connect 15 0 20 0;
#X connect 16 0 20 1;
#X connect 17 0 20 2;
#X connect 18 0 21 1;
#X connect 19 0 21 2;
#X connect 20 0 22 0;
#X connect 21 0 23 0;
#X connect 22 0 25 0;
#X connect 23 0 26 0;
#X connect 24 0 6 3;
#X connect 25 0 6 1;
#X connect 26 0 6 2;
#X connect 27 0 7 1;
#X connect 28 0 7 2;
#X connect 29 0 7 3;
#X connect 30 0 7 4;
#X connect 32 0 33 0;
#X connect 32 0 35 0;
#X connect 32 0 37 0;
#X connect 33 0 34 0;
#X connect 34 0 31 2;
#X connect 35 0 36 0;
#X connect 36 0 31 1;
#X connect 37 0 31 0;
#X connect 38 0 5 0;
#X connect 39 0 42 0;
#X connect 39 0 38 0;
#X connect 39 0 41 0;
#X connect 40 0 22 0;
#X connect 40 0 23 0;
#X connect 41 0 4 0;
#X connect 42 0 3 0;
#X connect 43 0 15 0;
#X restore 266 394 pd losange3;
#N canvas 147 55 700 667 losange4 0;
#X obj 93 120 inlet;
#X obj 93 142 gemhead;
#X obj 164 195 translateXYZ;
#X floatatom 173 138 5 0 0 0 - - -, f 5;
#X floatatom 214 138 5 0 0 0 - - -, f 5;
#X floatatom 261 139 5 0 0 0 - - -, f 5;
#X obj 323 331 rotateXYZ;
#X obj 423 459 colorRGB;
#X obj 428 140 loadbang;
#X msg 356 182 -30;
#X msg 398 183 30;
#X msg 489 186 -30;
#X floatatom 445 214 5 0 0 0 - - -, f 5;
#X msg 533 186 30;
#X floatatom 309 214 5 0 0 0 - - -, f 5;
#X floatatom 356 214 5 0 0 0 - - -, f 5;
#X floatatom 398 214 5 0 0 0 - - -, f 5;
#X floatatom 489 215 5 0 0 0 - - -, f 5;
#X floatatom 533 215 5 0 0 0 - - -, f 5;
#X obj 344 241 lfo~;
#X obj 478 242 lfo~;
#X obj 344 263 snapshot~;
#X obj 478 264 snapshot~;
#X msg 431 278 45;
#X floatatom 344 284 5 0 0 0 - - -, f 5;
#X floatatom 478 286 5 0 0 0 - - -, f 5;
#X floatatom 414 402 5 0 0 0 - - -, f 5;
#X floatatom 455 402 5 0 0 0 - - -, f 5;
#X floatatom 497 402 5 0 0 0 - - -, f 5;
#X floatatom 539 402 5 0 0 0 - - -, f 5;
#X obj 435 582 rectangle;
#X obj 476 506 loadbang;
#X msg 516 537 2;
#X floatatom 516 560 5 0 0 0 - - -, f 5;
#X msg 472 538 2;
#X floatatom 472 560 5 0 0 0 - - -, f 5;
#X msg 349 549 draw line;
#X obj 199 65 loadbang;
#X msg 173 113 0;
#X msg 214 112 -0.75;
#X msg 261 113 0.5;
#X msg 309 182 0.05;
#X msg 445 185 0.0125;
#X obj 569 247 r FPSmetro;
#X connect 0 0 1 0;
#X connect 1 0 2 0;
#X connect 2 0 6 0;
#X connect 3 0 2 1;
#X connect 4 0 2 2;
#X connect 5 0 2 3;
#X connect 6 0 7 0;
#X connect 7 0 30 0;
#X connect 8 0 41 0;
#X connect 8 0 9 0;
#X connect 8 0 10 0;
#X connect 8 0 42 0;
#X connect 8 0 11 0;
#X connect 8 0 13 0;
#X connect 8 0 23 0;
#X connect 9 0 15 0;
#X connect 10 0 16 0;
#X connect 11 0 17 0;
#X connect 12 0 20 0;
#X connect 13 0 18 0;
#X connect 14 0 19 0;
#X connect 15 0 19 1;
#X connect 16 0 19 2;
#X connect 17 0 20 1;
#X connect 18 0 20 2;
#X connect 19 0 21 0;
#X connect 20 0 22 0;
#X connect 21 0 24 0;
#X connect 22 0 25 0;
#X connect 23 0 6 3;
#X connect 24 0 6 1;
#X connect 25 0 6 2;
#X connect 26 0 7 1;
#X connect 27 0 7 2;
#X connect 28 0 7 3;
#X connect 29 0 7 4;
#X connect 31 0 32 0;
#X connect 31 0 34 0;
#X connect 31 0 36 0;
#X connect 32 0 33 0;
#X connect 33 0 30 2;
#X connect 34 0 35 0;
#X connect 35 0 30 1;
#X connect 36 0 30 0;
#X connect 37 0 38 0;
#X connect 37 0 39 0;
#X connect 37 0 40 0;
#X connect 38 0 3 0;
#X connect 39 0 4 0;
#X connect 40 0 5 0;
#X connect 41 0 14 0;
#X connect 42 0 12 0;
#X connect 43 0 21 0;
#X connect 43 0 22 0;
#X restore 353 394 pd losange4;
#N canvas 147 55 700 667 losange5 0;
#X obj 113 148 inlet;
#X obj 113 170 gemhead;
#X obj 184 223 translateXYZ;
#X floatatom 184 168 5 0 0 0 - - -, f 5;
#X floatatom 234 166 5 0 0 0 - - -, f 5;
#X floatatom 277 166 5 0 0 0 - - -, f 5;
#X obj 343 359 rotateXYZ;
#X obj 423 459 colorRGB;
#X obj 448 168 loadbang;
#X msg 329 210 0.025;
#X msg 376 210 -30;
#X msg 418 211 30;
#X msg 465 213 0.05;
#X msg 509 214 -30;
#X floatatom 465 242 5 0 0 0 - - -, f 5;
#X msg 553 214 30;
#X floatatom 329 242 5 0 0 0 - - -, f 5;
#X floatatom 376 242 5 0 0 0 - - -, f 5;
#X floatatom 418 242 5 0 0 0 - - -, f 5;
#X floatatom 509 243 5 0 0 0 - - -, f 5;
#X floatatom 553 243 5 0 0 0 - - -, f 5;
#X obj 364 269 lfo~;
#X obj 498 270 lfo~;
#X obj 364 291 snapshot~;
#X obj 498 292 snapshot~;
#X msg 451 306 45;
#X floatatom 364 312 5 0 0 0 - - -, f 5;
#X floatatom 498 314 5 0 0 0 - - -, f 5;
#X floatatom 414 402 5 0 0 0 - - -, f 5;
#X floatatom 455 402 5 0 0 0 - - -, f 5;
#X floatatom 497 402 5 0 0 0 - - -, f 5;
#X floatatom 539 402 5 0 0 0 - - -, f 5;
#X obj 435 582 rectangle;
#X obj 476 506 loadbang;
#X msg 516 537 2;
#X floatatom 516 560 5 0 0 0 - - -, f 5;
#X msg 472 538 2;
#X floatatom 472 560 5 0 0 0 - - -, f 5;
#X msg 349 549 draw line;
#X obj 227 93 loadbang;
#X msg 184 144 -0.75;
#X msg 234 142 0;
#X msg 277 141 0.5;
#X obj 598 275 r FPSmetro;
#X connect 0 0 1 0;
#X connect 1 0 2 0;
#X connect 2 0 6 0;
#X connect 3 0 2 1;
#X connect 4 0 2 2;
#X connect 5 0 2 3;
#X connect 6 0 7 0;
#X connect 7 0 32 0;
#X connect 8 0 9 0;
#X connect 8 0 10 0;
#X connect 8 0 11 0;
#X connect 8 0 12 0;
#X connect 8 0 13 0;
#X connect 8 0 15 0;
#X connect 8 0 25 0;
#X connect 9 0 16 0;
#X connect 10 0 17 0;
#X connect 11 0 18 0;
#X connect 12 0 14 0;
#X connect 13 0 19 0;
#X connect 14 0 22 0;
#X connect 15 0 20 0;
#X connect 16 0 21 0;
#X connect 17 0 21 1;
#X connect 18 0 21 2;
#X connect 19 0 22 1;
#X connect 20 0 22 2;
#X connect 21 0 23 0;
#X connect 22 0 24 0;
#X connect 23 0 26 0;
#X connect 24 0 27 0;
#X connect 25 0 6 3;
#X connect 26 0 6 1;
#X connect 27 0 6 2;
#X connect 28 0 7 1;
#X connect 29 0 7 2;
#X connect 30 0 7 3;
#X connect 31 0 7 4;
#X connect 33 0 34 0;
#X connect 33 0 36 0;
#X connect 33 0 38 0;
#X connect 34 0 35 0;
#X connect 35 0 32 2;
#X connect 36 0 37 0;
#X connect 37 0 32 1;
#X connect 38 0 32 0;
#X connect 39 0 40 0;
#X connect 39 0 41 0;
#X connect 39 0 42 0;
#X connect 40 0 3 0;
#X connect 41 0 4 0;
#X connect 42 0 5 0;
#X connect 43 0 23 0;
#X connect 43 0 24 0;
#X restore 444 394 pd losange5;
#X obj 90 371 tgl 15 0 empty empty empty 17 7 0 10 -262144 -1 -1 1
1;
#X obj 176 372 tgl 15 0 empty empty empty 17 7 0 10 -262144 -1 -1 1
1;
#X obj 266 372 tgl 15 0 empty empty empty 17 7 0 10 -262144 -1 -1 1
1;
#X obj 353 372 tgl 15 0 empty empty empty 17 7 0 10 -262144 -1 -1 1
1;
#X obj 444 372 tgl 15 0 empty empty empty 17 7 0 10 -262144 -1 -1 1
1;
#X obj 266 324 loadbang;
#X connect 1 0 0 0;
#X connect 2 0 0 0;
#X connect 3 0 0 0;
#X connect 4 0 5 0;
#X connect 4 0 10 0;
#X connect 5 0 6 0;
#X connect 6 0 7 0;
#X connect 7 0 8 0;
#X connect 8 0 9 1;
#X connect 9 0 11 0;
#X connect 10 0 9 0;
#X connect 17 0 12 0;
#X connect 18 0 13 0;
#X connect 19 0 14 0;
#X connect 20 0 15 0;
#X connect 21 0 16 0;
#X connect 22 0 17 0;
#X connect 22 0 18 0;
#X connect 22 0 19 0;
#X connect 22 0 20 0;
#X connect 22 0 21 0;
#X restore 64 325 pd visuGEM;
#X connect 3 0 4 0;
#X connect 25 0 24 0;
#X connect 27 0 24 0;
