#N canvas 647 117 1090 605 10;
#X obj 37 232 metro 10;
#X obj 37 203 tgl 15 0 empty empty empty 17 7 0 10 -262144 -1 -1 1
1;
#X floatatom 82 209 5 0 0 0 - - -, f 5;
#X floatatom 82 166 5 0 0 0 - - -, f 5;
#X text 83 148 fps;
#X obj 37 261 s FPSmetro;
#X obj 82 187 expr 1000 / $f1;
#X obj 46 481 tgl 15 0 empty empty empty 17 7 0 10 -262144 -1 -1 0
1;
#X obj 37 117 loadbang;
#X obj 39 16 tgl 25 0 empty empty empty 17 7 0 10 -204786 -1 -1 0 1
;
#X msg 39 48 \; pd dsp \$1;
#X msg 37 139 60;
#X msg 421 75 dimen 1920 1080;
#X obj 126 481 tgl 15 0 empty empty empty 17 7 0 10 -262144 -1 -1 0
1;
#X obj 206 481 tgl 15 0 empty empty empty 17 7 0 10 -262144 -1 -1 0
1;
#X obj 287 481 tgl 15 0 empty empty empty 17 7 0 10 -262144 -1 -1 0
1;
#X obj 368 481 tgl 15 0 empty empty empty 17 7 0 10 -262144 -1 -1 0
1;
#N canvas 803 100 901 799 ligne1 0;
#X obj 198 262 inlet;
#X obj 336 341 translateXYZ;
#X floatatom 338 293 5 0 0 0 - - -, f 5;
#X floatatom 380 293 5 0 0 0 - - -, f 5;
#X floatatom 425 292 5 0 0 0 - - -, f 5;
#X obj 458 613 colorRGB;
#X obj 452 475 rotateXYZ;
#X floatatom 497 573 5 0 0 0 - - -, f 5;
#X floatatom 533 574 5 0 0 0 - - -, f 5;
#X floatatom 570 574 5 0 0 0 - - -, f 5;
#X floatatom 607 574 5 0 0 0 - - -, f 5;
#X floatatom 504 700 5 0 0 0 - - -, f 5;
#X obj 468 736 rectangle;
#X floatatom 548 701 5 0 0 0 - - -, f 5;
#X obj 373 685 loadbang;
#X msg 425 271 0.5;
#X obj 198 288 gemhead;
#X obj 549 639 loadbang;
#X floatatom 438 422 5 0 0 0 - - -, f 5;
#X floatatom 486 421 5 0 0 0 - - -, f 5;
#X floatatom 540 423 5 0 0 0 - - -, f 5;
#X obj 289 187 lfo~;
#X obj 288 217 snapshot~;
#X floatatom 299 161 5 0 0 0 - - -, f 5;
#X floatatom 339 172 5 0 0 0 - - -, f 5;
#X floatatom 260 161 5 0 0 0 - - -, f 5;
#X text 256 144 freq;
#X text 298 143 min;
#X text 337 144 max;
#X obj 359 81 loadbang;
#X obj 411 189 lfo~;
#X obj 411 217 snapshot~;
#X floatatom 421 159 5 0 0 0 - - -, f 5;
#X floatatom 460 159 5 0 0 0 - - -, f 5;
#X floatatom 382 159 5 0 0 0 - - -, f 5;
#X text 378 143 freq;
#X text 420 142 min;
#X text 459 143 max;
#X obj 502 200 r FPSmetro;
#X msg 381 116 0.05;
#X msg 540 394 90;
#X msg 259 117 0.035;
#X msg 575 395 0;
#X obj 583 351 r Hori;
#X obj 523 351 r Verti;
#X msg 420 118 -3;
#X msg 459 118 3;
#X msg 298 119 -6;
#X msg 337 119 6;
#X msg 373 708 draw line;
#X msg 322 730 draw fill;
#X obj 446 662 scale;
#X msg 391 607 1;
#X obj 278 565 r globScale;
#X floatatom 278 587 5 0 0 0 - - -, f 5;
#X msg 278 606 \$1 20;
#X obj 278 628 line;
#X obj 630 473 loadbang;
#X obj 563 461 r trigGO;
#X obj 584 519 line;
#X obj 584 541 *;
#X msg 563 482 1 3000;
#X obj 696 477 r Cue1;
#X msg 630 494 0 3000;
#X msg 504 667 9;
#X msg 548 672 0.01;
#X connect 0 0 16 0;
#X connect 1 0 6 0;
#X connect 2 0 1 1;
#X connect 3 0 1 2;
#X connect 4 0 1 3;
#X connect 5 0 51 0;
#X connect 6 0 5 0;
#X connect 7 0 5 1;
#X connect 8 0 5 2;
#X connect 9 0 5 3;
#X connect 10 0 5 4;
#X connect 11 0 12 1;
#X connect 13 0 12 2;
#X connect 14 0 49 0;
#X connect 14 0 50 0;
#X connect 14 0 52 0;
#X connect 15 0 4 0;
#X connect 16 0 1 0;
#X connect 17 0 64 0;
#X connect 17 0 65 0;
#X connect 18 0 6 1;
#X connect 19 0 6 2;
#X connect 20 0 6 3;
#X connect 21 0 22 0;
#X connect 23 0 21 1;
#X connect 24 0 21 2;
#X connect 25 0 21 0;
#X connect 29 0 41 0;
#X connect 29 0 47 0;
#X connect 29 0 48 0;
#X connect 29 0 39 0;
#X connect 29 0 45 0;
#X connect 29 0 46 0;
#X connect 30 0 31 0;
#X connect 31 0 3 0;
#X connect 32 0 30 1;
#X connect 33 0 30 2;
#X connect 34 0 30 0;
#X connect 38 0 31 0;
#X connect 38 0 22 0;
#X connect 39 0 34 0;
#X connect 40 0 20 0;
#X connect 41 0 25 0;
#X connect 42 0 20 0;
#X connect 43 0 42 0;
#X connect 44 0 40 0;
#X connect 45 0 32 0;
#X connect 46 0 33 0;
#X connect 47 0 23 0;
#X connect 48 0 24 0;
#X connect 49 0 12 0;
#X connect 50 0 12 0;
#X connect 51 0 12 0;
#X connect 52 0 51 1;
#X connect 53 0 54 0;
#X connect 54 0 55 0;
#X connect 55 0 56 0;
#X connect 56 0 51 1;
#X connect 57 0 63 0;
#X connect 58 0 61 0;
#X connect 59 0 60 0;
#X connect 59 0 60 1;
#X connect 60 0 7 0;
#X connect 60 0 8 0;
#X connect 60 0 9 0;
#X connect 60 0 10 0;
#X connect 61 0 59 0;
#X connect 62 0 63 0;
#X connect 63 0 59 0;
#X connect 64 0 11 0;
#X connect 65 0 13 0;
#X restore 46 507 pd ligne1;
#N canvas 914 50 901 812 ligne2 0;
#X msg 373 708 draw line;
#X obj 156 201 inlet;
#X obj 294 280 translateXYZ;
#X floatatom 296 232 5 0 0 0 - - -, f 5;
#X floatatom 338 232 5 0 0 0 - - -, f 5;
#X floatatom 383 231 5 0 0 0 - - -, f 5;
#X obj 458 613 colorRGB;
#X obj 418 444 rotateXYZ;
#X floatatom 497 573 5 0 0 0 - - -, f 5;
#X floatatom 533 574 5 0 0 0 - - -, f 5;
#X floatatom 570 574 5 0 0 0 - - -, f 5;
#X floatatom 607 574 5 0 0 0 - - -, f 5;
#X floatatom 504 700 5 0 0 0 - - -, f 5;
#X obj 468 736 rectangle;
#X floatatom 548 701 5 0 0 0 - - -, f 5;
#X obj 373 685 loadbang;
#X floatatom 425 388 5 0 0 0 - - -, f 5;
#X floatatom 469 397 5 0 0 0 - - -, f 5;
#X floatatom 513 397 5 0 0 0 - - -, f 5;
#X obj 278 147 lfo~;
#X obj 277 177 snapshot~;
#X floatatom 288 121 5 0 0 0 - - -, f 5;
#X floatatom 328 132 5 0 0 0 - - -, f 5;
#X floatatom 249 121 5 0 0 0 - - -, f 5;
#X text 245 104 freq;
#X text 287 103 min;
#X text 326 104 max;
#X obj 348 41 loadbang;
#X obj 400 149 lfo~;
#X obj 400 176 snapshot~;
#X floatatom 410 119 5 0 0 0 - - -, f 5;
#X floatatom 449 119 5 0 0 0 - - -, f 5;
#X floatatom 371 119 5 0 0 0 - - -, f 5;
#X text 367 103 freq;
#X text 409 102 min;
#X text 448 103 max;
#X msg 448 78 30;
#X msg 409 78 -30;
#X msg 360 185 45;
#X msg 383 210 0.5;
#X obj 156 227 gemhead;
#X obj 491 162 r FPSmetro;
#X msg 370 76 0.05;
#X obj 549 639 loadbang;
#X msg 248 77 0.02;
#X msg 287 79 -3;
#X msg 326 79 3;
#X msg 504 667 9;
#X msg 381 740 draw fill;
#X obj 446 662 scale;
#X msg 391 607 1;
#X obj 278 565 r globScale;
#X floatatom 278 587 5 0 0 0 - - -, f 5;
#X msg 278 606 \$1 20;
#X obj 278 629 line;
#X obj 610 477 loadbang;
#X obj 545 459 r trigGO;
#X obj 556 525 line;
#X obj 556 547 *;
#X msg 545 480 1 3000;
#X obj 675 484 r Cue1;
#X msg 610 501 0 3000;
#X msg 548 672 0.01;
#X connect 0 0 13 0;
#X connect 1 0 40 0;
#X connect 2 0 7 0;
#X connect 3 0 2 1;
#X connect 4 0 2 2;
#X connect 5 0 2 3;
#X connect 6 0 49 0;
#X connect 7 0 6 0;
#X connect 8 0 6 1;
#X connect 9 0 6 2;
#X connect 10 0 6 3;
#X connect 11 0 6 4;
#X connect 12 0 13 1;
#X connect 14 0 13 2;
#X connect 15 0 0 0;
#X connect 15 0 48 0;
#X connect 15 0 50 0;
#X connect 16 0 7 1;
#X connect 17 0 7 2;
#X connect 18 0 7 3;
#X connect 19 0 20 0;
#X connect 20 0 4 0;
#X connect 21 0 19 1;
#X connect 22 0 19 2;
#X connect 23 0 19 0;
#X connect 27 0 44 0;
#X connect 27 0 45 0;
#X connect 27 0 46 0;
#X connect 27 0 38 0;
#X connect 27 0 42 0;
#X connect 27 0 37 0;
#X connect 27 0 36 0;
#X connect 28 0 29 0;
#X connect 30 0 28 1;
#X connect 31 0 28 2;
#X connect 32 0 28 0;
#X connect 36 0 31 0;
#X connect 37 0 30 0;
#X connect 39 0 5 0;
#X connect 40 0 2 0;
#X connect 41 0 29 0;
#X connect 41 0 20 0;
#X connect 42 0 32 0;
#X connect 43 0 47 0;
#X connect 43 0 62 0;
#X connect 44 0 23 0;
#X connect 45 0 21 0;
#X connect 46 0 22 0;
#X connect 47 0 12 0;
#X connect 48 0 13 0;
#X connect 49 0 13 0;
#X connect 50 0 49 1;
#X connect 51 0 52 0;
#X connect 52 0 53 0;
#X connect 53 0 54 0;
#X connect 54 0 49 1;
#X connect 55 0 61 0;
#X connect 56 0 59 0;
#X connect 57 0 58 0;
#X connect 57 0 58 1;
#X connect 58 0 8 0;
#X connect 58 0 9 0;
#X connect 58 0 10 0;
#X connect 58 0 11 0;
#X connect 59 0 57 0;
#X connect 60 0 61 0;
#X connect 61 0 57 0;
#X connect 62 0 14 0;
#X restore 126 507 pd ligne2;
#N canvas 721 50 901 812 ligne3 0;
#X msg 373 708 draw line;
#X obj 156 201 inlet;
#X obj 294 280 translateXYZ;
#X floatatom 296 232 5 0 0 0 - - -, f 5;
#X floatatom 338 232 5 0 0 0 - - -, f 5;
#X floatatom 383 231 5 0 0 0 - - -, f 5;
#X obj 458 613 colorRGB;
#X obj 444 412 rotateXYZ;
#X floatatom 497 573 5 0 0 0 - - -, f 5;
#X floatatom 533 574 5 0 0 0 - - -, f 5;
#X floatatom 570 574 5 0 0 0 - - -, f 5;
#X floatatom 607 574 5 0 0 0 - - -, f 5;
#X floatatom 504 700 5 0 0 0 - - -, f 5;
#X obj 468 736 rectangle;
#X floatatom 548 701 5 0 0 0 - - -, f 5;
#X obj 373 685 loadbang;
#X floatatom 441 367 5 0 0 0 - - -, f 5;
#X floatatom 485 376 5 0 0 0 - - -, f 5;
#X floatatom 529 376 5 0 0 0 - - -, f 5;
#X obj 277 136 lfo~;
#X obj 276 166 snapshot~;
#X floatatom 287 110 5 0 0 0 - - -, f 5;
#X floatatom 327 121 5 0 0 0 - - -, f 5;
#X floatatom 248 110 5 0 0 0 - - -, f 5;
#X text 244 93 freq;
#X text 286 92 min;
#X text 325 93 max;
#X obj 347 30 loadbang;
#X obj 399 138 lfo~;
#X obj 399 165 snapshot~;
#X floatatom 409 108 5 0 0 0 - - -, f 5;
#X floatatom 448 108 5 0 0 0 - - -, f 5;
#X floatatom 370 108 5 0 0 0 - - -, f 5;
#X text 366 92 freq;
#X text 408 91 min;
#X text 447 92 max;
#X msg 447 67 30;
#X msg 408 67 -30;
#X msg 359 174 45;
#X msg 383 210 0.5;
#X obj 156 227 gemhead;
#X obj 490 151 r FPSmetro;
#X msg 369 65 0.05;
#X obj 549 639 loadbang;
#X msg 247 66 0.03;
#X msg 286 68 -3;
#X msg 325 68 3;
#X msg 504 667 9;
#X msg 343 728 draw fill;
#X obj 446 662 scale;
#X msg 391 607 1;
#X obj 278 565 r globScale;
#X floatatom 278 587 5 0 0 0 - - -, f 5;
#X msg 278 606 \$1 20;
#X obj 278 628 line;
#X obj 624 444 loadbang;
#X obj 553 461 r trigGO;
#X obj 561 520 line;
#X obj 561 542 *;
#X msg 553 482 1 3000;
#X msg 630 485 0 3000;
#X obj 696 461 r Cue1;
#X msg 548 672 0.01;
#X connect 0 0 13 0;
#X connect 1 0 40 0;
#X connect 2 0 7 0;
#X connect 3 0 2 1;
#X connect 4 0 2 2;
#X connect 5 0 2 3;
#X connect 6 0 49 0;
#X connect 7 0 6 0;
#X connect 8 0 6 1;
#X connect 9 0 6 2;
#X connect 10 0 6 3;
#X connect 11 0 6 4;
#X connect 12 0 13 1;
#X connect 14 0 13 2;
#X connect 15 0 0 0;
#X connect 15 0 48 0;
#X connect 15 0 50 0;
#X connect 16 0 7 1;
#X connect 17 0 7 2;
#X connect 18 0 7 3;
#X connect 19 0 20 0;
#X connect 20 0 4 0;
#X connect 21 0 19 1;
#X connect 22 0 19 2;
#X connect 23 0 19 0;
#X connect 27 0 44 0;
#X connect 27 0 45 0;
#X connect 27 0 46 0;
#X connect 27 0 38 0;
#X connect 27 0 42 0;
#X connect 27 0 37 0;
#X connect 27 0 36 0;
#X connect 28 0 29 0;
#X connect 30 0 28 1;
#X connect 31 0 28 2;
#X connect 32 0 28 0;
#X connect 36 0 31 0;
#X connect 37 0 30 0;
#X connect 39 0 5 0;
#X connect 40 0 2 0;
#X connect 41 0 29 0;
#X connect 41 0 20 0;
#X connect 42 0 32 0;
#X connect 43 0 47 0;
#X connect 43 0 62 0;
#X connect 44 0 23 0;
#X connect 45 0 21 0;
#X connect 46 0 22 0;
#X connect 47 0 12 0;
#X connect 48 0 13 0;
#X connect 49 0 13 0;
#X connect 50 0 49 1;
#X connect 51 0 52 0;
#X connect 52 0 53 0;
#X connect 53 0 54 0;
#X connect 54 0 49 1;
#X connect 55 0 60 0;
#X connect 56 0 59 0;
#X connect 57 0 58 0;
#X connect 57 0 58 1;
#X connect 58 0 8 0;
#X connect 58 0 9 0;
#X connect 58 0 10 0;
#X connect 58 0 11 0;
#X connect 59 0 57 0;
#X connect 60 0 57 0;
#X connect 61 0 60 0;
#X connect 62 0 14 0;
#X restore 206 507 pd ligne3;
#N canvas 721 50 901 812 ligne4 0;
#X msg 373 708 draw line;
#X obj 232 234 inlet;
#X obj 370 313 translateXYZ;
#X floatatom 372 265 5 0 0 0 - - -, f 5;
#X floatatom 414 265 5 0 0 0 - - -, f 5;
#X floatatom 459 264 5 0 0 0 - - -, f 5;
#X obj 458 613 colorRGB;
#X obj 468 449 rotateXYZ;
#X floatatom 497 573 5 0 0 0 - - -, f 5;
#X floatatom 533 574 5 0 0 0 - - -, f 5;
#X floatatom 570 574 5 0 0 0 - - -, f 5;
#X floatatom 607 574 5 0 0 0 - - -, f 5;
#X floatatom 504 700 5 0 0 0 - - -, f 5;
#X obj 468 736 rectangle;
#X floatatom 548 701 5 0 0 0 - - -, f 5;
#X obj 373 685 loadbang;
#X floatatom 475 393 5 0 0 0 - - -, f 5;
#X floatatom 519 402 5 0 0 0 - - -, f 5;
#X floatatom 563 402 5 0 0 0 - - -, f 5;
#X obj 323 167 lfo~;
#X obj 322 197 snapshot~;
#X floatatom 333 141 5 0 0 0 - - -, f 5;
#X floatatom 373 152 5 0 0 0 - - -, f 5;
#X floatatom 294 141 5 0 0 0 - - -, f 5;
#X text 290 124 freq;
#X text 332 123 min;
#X text 371 124 max;
#X obj 393 61 loadbang;
#X obj 445 169 lfo~;
#X obj 445 196 snapshot~;
#X floatatom 455 139 5 0 0 0 - - -, f 5;
#X floatatom 494 139 5 0 0 0 - - -, f 5;
#X floatatom 416 139 5 0 0 0 - - -, f 5;
#X text 412 123 freq;
#X text 454 122 min;
#X text 493 123 max;
#X msg 493 98 30;
#X msg 454 98 -30;
#X msg 405 205 45;
#X msg 459 243 0.5;
#X obj 232 260 gemhead;
#X obj 536 182 r FPSmetro;
#X msg 415 96 0.05;
#X obj 549 639 loadbang;
#X msg 293 97 0.04;
#X msg 332 99 -3;
#X msg 371 99 3;
#X msg 504 667 9;
#X msg 328 728 draw fill;
#X obj 446 662 scale;
#X msg 391 607 1;
#X obj 278 565 r globScale;
#X floatatom 278 587 5 0 0 0 - - -, f 5;
#X msg 278 606 \$1 20;
#X obj 278 628 line;
#X obj 627 469 loadbang;
#X obj 556 476 r trigGO;
#X obj 563 527 line;
#X obj 563 549 *;
#X msg 556 497 1 3000;
#X msg 630 502 0 3000;
#X obj 694 481 r Cue1;
#X msg 548 672 0.01;
#X connect 0 0 13 0;
#X connect 1 0 40 0;
#X connect 2 0 7 0;
#X connect 3 0 2 1;
#X connect 4 0 2 2;
#X connect 5 0 2 3;
#X connect 6 0 49 0;
#X connect 7 0 6 0;
#X connect 8 0 6 1;
#X connect 9 0 6 2;
#X connect 10 0 6 3;
#X connect 11 0 6 4;
#X connect 12 0 13 1;
#X connect 14 0 13 2;
#X connect 15 0 0 0;
#X connect 15 0 48 0;
#X connect 15 0 50 0;
#X connect 16 0 7 1;
#X connect 17 0 7 2;
#X connect 18 0 7 3;
#X connect 19 0 20 0;
#X connect 20 0 4 0;
#X connect 21 0 19 1;
#X connect 22 0 19 2;
#X connect 23 0 19 0;
#X connect 27 0 44 0;
#X connect 27 0 45 0;
#X connect 27 0 46 0;
#X connect 27 0 38 0;
#X connect 27 0 42 0;
#X connect 27 0 37 0;
#X connect 27 0 36 0;
#X connect 28 0 29 0;
#X connect 30 0 28 1;
#X connect 31 0 28 2;
#X connect 32 0 28 0;
#X connect 36 0 31 0;
#X connect 37 0 30 0;
#X connect 39 0 5 0;
#X connect 40 0 2 0;
#X connect 41 0 29 0;
#X connect 41 0 20 0;
#X connect 42 0 32 0;
#X connect 43 0 47 0;
#X connect 43 0 62 0;
#X connect 44 0 23 0;
#X connect 45 0 21 0;
#X connect 46 0 22 0;
#X connect 47 0 12 0;
#X connect 48 0 13 0;
#X connect 49 0 13 0;
#X connect 50 0 49 1;
#X connect 51 0 52 0;
#X connect 52 0 53 0;
#X connect 53 0 54 0;
#X connect 54 0 49 1;
#X connect 55 0 60 0;
#X connect 56 0 59 0;
#X connect 57 0 58 0;
#X connect 57 0 58 1;
#X connect 58 0 8 0;
#X connect 58 0 9 0;
#X connect 58 0 10 0;
#X connect 58 0 11 0;
#X connect 59 0 57 0;
#X connect 60 0 57 0;
#X connect 61 0 60 0;
#X connect 62 0 14 0;
#X restore 287 507 pd ligne4;
#N canvas 721 50 901 812 ligne5 0;
#X msg 373 708 draw line;
#X obj 183 270 inlet;
#X obj 321 349 translateXYZ;
#X floatatom 323 301 5 0 0 0 - - -, f 5;
#X floatatom 365 301 5 0 0 0 - - -, f 5;
#X floatatom 410 300 5 0 0 0 - - -, f 5;
#X obj 458 613 colorRGB;
#X obj 459 446 rotateXYZ;
#X floatatom 497 573 5 0 0 0 - - -, f 5;
#X floatatom 533 574 5 0 0 0 - - -, f 5;
#X floatatom 570 574 5 0 0 0 - - -, f 5;
#X floatatom 607 574 5 0 0 0 - - -, f 5;
#X floatatom 504 700 5 0 0 0 - - -, f 5;
#X obj 468 736 rectangle;
#X floatatom 548 701 5 0 0 0 - - -, f 5;
#X obj 373 685 loadbang;
#X floatatom 466 390 5 0 0 0 - - -, f 5;
#X floatatom 510 399 5 0 0 0 - - -, f 5;
#X floatatom 554 399 5 0 0 0 - - -, f 5;
#X obj 290 193 lfo~;
#X obj 289 223 snapshot~;
#X floatatom 300 167 5 0 0 0 - - -, f 5;
#X floatatom 340 178 5 0 0 0 - - -, f 5;
#X floatatom 261 167 5 0 0 0 - - -, f 5;
#X text 257 150 freq;
#X text 299 149 min;
#X text 338 150 max;
#X obj 360 87 loadbang;
#X obj 412 195 lfo~;
#X obj 412 222 snapshot~;
#X floatatom 422 165 5 0 0 0 - - -, f 5;
#X floatatom 461 165 5 0 0 0 - - -, f 5;
#X floatatom 383 165 5 0 0 0 - - -, f 5;
#X text 379 149 freq;
#X text 421 148 min;
#X text 460 149 max;
#X msg 460 124 30;
#X msg 421 124 -30;
#X msg 372 231 45;
#X msg 410 279 0.5;
#X obj 183 296 gemhead;
#X obj 503 208 r FPSmetro;
#X msg 382 122 0.05;
#X obj 549 639 loadbang;
#X msg 260 123 0.045;
#X msg 299 125 -3;
#X msg 338 125 3;
#X msg 504 667 9;
#X msg 299 728 draw fill;
#X obj 446 662 scale;
#X msg 391 607 1;
#X obj 278 565 r globScale;
#X floatatom 278 587 5 0 0 0 - - -, f 5;
#X msg 278 606 \$1 20;
#X obj 278 628 line;
#X obj 611 465 loadbang;
#X obj 542 464 r trigGO;
#X obj 561 517 line;
#X obj 561 539 *;
#X msg 542 485 1 3000;
#X msg 611 487 0 3000;
#X obj 680 466 r Cue1;
#X msg 548 672 0.01;
#X connect 0 0 13 0;
#X connect 1 0 40 0;
#X connect 2 0 7 0;
#X connect 3 0 2 1;
#X connect 4 0 2 2;
#X connect 5 0 2 3;
#X connect 6 0 49 0;
#X connect 7 0 6 0;
#X connect 8 0 6 1;
#X connect 9 0 6 2;
#X connect 10 0 6 3;
#X connect 11 0 6 4;
#X connect 12 0 13 1;
#X connect 14 0 13 2;
#X connect 15 0 0 0;
#X connect 15 0 48 0;
#X connect 15 0 50 0;
#X connect 16 0 7 1;
#X connect 17 0 7 2;
#X connect 18 0 7 3;
#X connect 19 0 20 0;
#X connect 20 0 4 0;
#X connect 21 0 19 1;
#X connect 22 0 19 2;
#X connect 23 0 19 0;
#X connect 27 0 44 0;
#X connect 27 0 45 0;
#X connect 27 0 46 0;
#X connect 27 0 38 0;
#X connect 27 0 42 0;
#X connect 27 0 37 0;
#X connect 27 0 36 0;
#X connect 28 0 29 0;
#X connect 30 0 28 1;
#X connect 31 0 28 2;
#X connect 32 0 28 0;
#X connect 36 0 31 0;
#X connect 37 0 30 0;
#X connect 39 0 5 0;
#X connect 40 0 2 0;
#X connect 41 0 29 0;
#X connect 41 0 20 0;
#X connect 42 0 32 0;
#X connect 43 0 47 0;
#X connect 43 0 62 0;
#X connect 44 0 23 0;
#X connect 45 0 21 0;
#X connect 46 0 22 0;
#X connect 47 0 12 0;
#X connect 48 0 13 0;
#X connect 49 0 13 0;
#X connect 50 0 49 1;
#X connect 51 0 52 0;
#X connect 52 0 53 0;
#X connect 53 0 54 0;
#X connect 54 0 49 1;
#X connect 55 0 60 0;
#X connect 56 0 59 0;
#X connect 57 0 58 0;
#X connect 57 0 58 1;
#X connect 58 0 8 0;
#X connect 58 0 9 0;
#X connect 58 0 10 0;
#X connect 58 0 11 0;
#X connect 59 0 57 0;
#X connect 60 0 57 0;
#X connect 61 0 60 0;
#X connect 62 0 14 0;
#X restore 368 507 pd ligne5;
#X msg 325 87 create \, 1;
#X msg 434 117 border 0;
#X msg 429 96 offset 0 -1080;
#X msg 278 140 0 \, destroy;
#N canvas 107 50 450 300 esc 0;
#X obj 65 20 gemkeyboard;
#X obj 65 167 outlet;
#X obj 89 71 keyname;
#X obj 128 96 sel Escape;
#X obj 65 41 sel 53;
#X obj 189 47 sel Escape;
#X obj 150 22 gemkeyname;
#X connect 0 0 4 0;
#X connect 2 1 3 0;
#X connect 3 0 1 0;
#X connect 4 0 1 0;
#X connect 5 0 1 0;
#X connect 6 1 5 0;
#X restore 278 118 pd esc;
#X msg 562 84 offset 0 0;
#X floatatom 703 198 5 0 0 0 - - -, f 5;
#X msg 247 399 0;
#X obj 720 320 s trigGO;
#X msg 218 48 reset \, dimen 1920 1080 \, border 0 \, create \, 1;
#X obj 662 247 s blkTRG;
#X obj 228 366 r blkTRG;
#X msg 206 399 1;
#X text 313 405 LIGNES;
#X text 471 398 LOSANGES;
#X obj 754 280 s Cue2;
#X text 348 184 CREATION FENETRE;
#X text 619 182 OSC-RX;
#X obj 737 300 s Cue1;
#X text 291 249 Partie Visuelle GEM;
#X text 270 286 lignes et losanges;
#X text 406 269 Cues OSC;
#X obj 165 366 r trigGO;
#X obj 108 18 loadbang;
#X obj 628 220 loadbang;
#X obj 764 507 s globScale;
#X floatatom 803 488 5 0 0 0 - - -, f 5;
#X obj 689 398 r Cue2;
#X obj 764 471 line;
#X obj 703 218 sel 0 1 2 3 4 5;
#X obj 771 260 s Cue3;
#X obj 788 240 s Cue4;
#X obj 764 398 r Cue3;
#X obj 840 398 r Cue4;
#X msg 640 454 1 5;
#X obj 640 435 loadbang;
#X msg 689 420 0.7 30000;
#X msg 764 420 0.4 30000;
#X text 534 48 display principal;
#X text 648 23 display projo;
#X msg 840 420 0 30000;
#X obj 295 374 delay 3000;
#X obj 295 355 bng 15 250 50 0 empty empty empty 17 7 0 10 -262144
-1 -1;
#X obj 295 334 r Cue1;
#X text 110 233 TIMECODE GEM;
#N canvas 794 248 876 482 LosangArray 0;
#X obj 122 305 tgl 15 0 empty empty empty 17 7 0 10 -262144 -1 -1 0
1;
#X msg 122 326 all \$1;
#X msg 39 347 next \$1;
#X floatatom 283 307 10 0 0 0 - - -, f 10;
#X msg 283 326 all \$1;
#X obj 350 168 lfo~;
#X floatatom 355 132 5 0 0 0 - - -, f 5;
#X floatatom 309 134 5 0 0 0 - - -, f 5;
#X floatatom 397 131 5 0 0 0 - - -, f 5;
#X obj 286 242 snapshot~;
#X obj 122 283 inlet;
#X obj 338 203 r FPSmetro;
#X obj 323 66 loadbang;
#X obj 361 243 snapshot~;
#X obj 495 168 lfo~;
#X floatatom 500 132 5 0 0 0 - - -, f 5;
#X floatatom 454 134 5 0 0 0 - - -, f 5;
#X floatatom 542 131 5 0 0 0 - - -, f 5;
#X obj 468 66 loadbang;
#X msg 363 324 all \$1;
#X floatatom 363 305 5 0 0 0 - - -, f 5;
#X msg 457 99 0.03;
#X msg 503 97 0;
#X msg 540 96 1;
#X obj 207 179 lfo~;
#X floatatom 212 143 5 0 0 0 - - -, f 5;
#X floatatom 152 145 8 0 0 0 - - -, f 8;
#X floatatom 254 142 5 0 0 0 - - -, f 5;
#X obj 180 77 loadbang;
#X obj 206 237 snapshot~;
#X floatatom 206 259 5 0 0 0 - - -, f 5;
#X msg 206 278 all \$1;
#X msg 472 341 all \$1;
#X floatatom 472 321 5 0 0 0 - - -, f 5;
#X obj 641 227 lfo~;
#X floatatom 646 191 5 0 0 0 - - -, f 5;
#X floatatom 600 193 5 0 0 0 - - -, f 5;
#X floatatom 688 190 5 0 0 0 - - -, f 5;
#X obj 614 125 loadbang;
#X obj 621 263 r FPSmetro;
#X obj 568 293 snapshot~;
#X msg 603 158 0.05;
#X text 213 350 Rotation;
#X text 291 349 Size;
#X text 370 349 Gap;
#X text 135 349 Toggle;
#X msg 649 156 0;
#X msg 358 97 180;
#X msg 395 96 -350;
#X msg 686 155 60;
#X text 688 104 60;
#X text 144 48 0.001;
#X text 199 49 -60;
#X text 251 47 60;
#X text 312 37 0.03;
#X text 363 38 180;
#X text 398 40 -350;
#X text 463 36 0.03;
#X text 510 35 0;
#X text 550 35 1;
#X text 604 102 0.05;
#X text 654 101 0;
#X msg 741 325 all \$1;
#X floatatom 741 304 5 0 0 0 - - -, f 5;
#X obj 741 282 line;
#X msg 741 260 \$1 20;
#X text 671 319 scale;
#X floatatom 763 233 5 0 0 0 - - -, f 5;
#X obj 785 187 loadbang;
#X msg 785 209 1;
#X obj 764 146 r globScale;
#X text 434 346 RGB;
#X msg 252 107 40;
#X msg 215 113 -30;
#X msg 151 113 0.001;
#X msg 312 99 0.03;
#X text 235 419 Automatisation par LFO des parametres des losanges
;
#X obj 135 368 clone losanGEM 60, f 44;
#X connect 0 0 1 0;
#X connect 1 0 77 0;
#X connect 3 0 4 0;
#X connect 4 0 77 2;
#X connect 5 0 9 0;
#X connect 6 0 5 1;
#X connect 7 0 5 0;
#X connect 8 0 5 2;
#X connect 9 0 3 0;
#X connect 10 0 0 0;
#X connect 11 0 9 0;
#X connect 11 0 13 0;
#X connect 11 0 29 0;
#X connect 12 0 75 0;
#X connect 12 0 47 0;
#X connect 12 0 48 0;
#X connect 13 0 20 0;
#X connect 14 0 13 0;
#X connect 15 0 14 1;
#X connect 16 0 14 0;
#X connect 17 0 14 2;
#X connect 18 0 21 0;
#X connect 18 0 22 0;
#X connect 18 0 23 0;
#X connect 19 0 77 3;
#X connect 20 0 19 0;
#X connect 21 0 16 0;
#X connect 22 0 15 0;
#X connect 23 0 17 0;
#X connect 24 0 29 0;
#X connect 25 0 24 1;
#X connect 26 0 24 0;
#X connect 27 0 24 2;
#X connect 28 0 74 0;
#X connect 28 0 73 0;
#X connect 28 0 72 0;
#X connect 29 0 30 0;
#X connect 30 0 31 0;
#X connect 31 0 77 1;
#X connect 32 0 77 4;
#X connect 33 0 32 0;
#X connect 34 0 40 0;
#X connect 35 0 34 1;
#X connect 36 0 34 0;
#X connect 37 0 34 2;
#X connect 38 0 41 0;
#X connect 38 0 46 0;
#X connect 38 0 49 0;
#X connect 39 0 40 0;
#X connect 40 0 33 0;
#X connect 41 0 36 0;
#X connect 46 0 35 0;
#X connect 47 0 6 0;
#X connect 48 0 8 0;
#X connect 49 0 37 0;
#X connect 62 0 77 5;
#X connect 63 0 62 0;
#X connect 64 0 63 0;
#X connect 65 0 64 0;
#X connect 67 0 65 0;
#X connect 68 0 69 0;
#X connect 69 0 67 0;
#X connect 70 0 67 0;
#X connect 72 0 27 0;
#X connect 73 0 25 0;
#X connect 74 0 26 0;
#X connect 75 0 7 0;
#X restore 460 506 pd LosangArray;
#X obj 460 485 tgl 15 0 empty empty empty 17 7 0 10 -262144 -1 -1 0
1;
#X msg 491 459 0;
#X msg 451 459 1;
#X obj 492 438 r blkTRG;
#X obj 369 157 gemwin 60;
#X obj 451 419 r Cue1;
#X obj 703 175 routeOSC /gemQ;
#X obj 703 119 udpreceive 11600;
#X obj 703 141 unpackOSC;
#X obj 882 158 routeOSC /RGB;
#X obj 882 180 routeOSC /R /G /B;
#X obj 875 210 / 127;
#X obj 976 210 / 127;
#X obj 925 209 / 127;
#X obj 866 356 s Red;
#X obj 916 356 s Green;
#X obj 976 356 s Blue;
#X obj 925 279 vsl 15 60 0 1 0 1 empty empty empty 0 -9 0 10 -204786
-1 -1 5900 1;
#X obj 875 279 vsl 15 60 0 1 0 1 empty empty empty -9 0 0 4 -261234
-1 -1 5900 0;
#X obj 976 279 vsl 15 60 0 1 0 1 empty empty empty 0 -9 0 10 -187840
-1 -1 5900 1;
#X obj 976 256 line;
#X obj 925 256 line;
#X obj 875 256 line;
#X msg 875 233 \$1 20;
#X msg 925 233 \$1 20;
#X msg 976 233 \$1 20;
#X obj 602 414 r trigGO;
#X msg 185 24 reset \, dimen 1920 1080 \, offset 0 -1080 \, border
0 \, create \, 1, f 65;
#X text 500 531 losanges;
#X text 891 131 valeurs RGB recues;
#X text 47 528 lignes du debut crees par rectangles tres minces;
#X text 668 528 reception de Cues pour le scale des formes;
#X connect 0 0 5 0;
#X connect 1 0 0 0;
#X connect 2 0 0 1;
#X connect 3 0 6 0;
#X connect 6 0 2 0;
#X connect 7 0 17 0;
#X connect 8 0 11 0;
#X connect 8 0 1 0;
#X connect 9 0 10 0;
#X connect 11 0 3 0;
#X connect 12 0 72 0;
#X connect 13 0 18 0;
#X connect 14 0 19 0;
#X connect 15 0 20 0;
#X connect 16 0 21 0;
#X connect 22 0 72 0;
#X connect 23 0 72 0;
#X connect 24 0 72 0;
#X connect 25 0 72 0;
#X connect 26 0 25 0;
#X connect 27 0 72 0;
#X connect 28 0 51 0;
#X connect 29 0 7 0;
#X connect 29 0 13 0;
#X connect 29 0 14 0;
#X connect 29 0 15 0;
#X connect 29 0 16 0;
#X connect 31 0 72 0;
#X connect 33 0 29 0;
#X connect 34 0 7 0;
#X connect 34 0 13 0;
#X connect 34 0 14 0;
#X connect 34 0 15 0;
#X connect 34 0 16 0;
#X connect 44 0 34 0;
#X connect 46 0 32 0;
#X connect 49 0 58 0;
#X connect 50 0 47 0;
#X connect 50 0 48 0;
#X connect 51 0 32 0;
#X connect 51 1 30 0;
#X connect 51 2 40 0;
#X connect 51 3 37 0;
#X connect 51 4 52 0;
#X connect 51 5 53 0;
#X connect 54 0 59 0;
#X connect 55 0 62 0;
#X connect 56 0 50 0;
#X connect 57 0 56 0;
#X connect 58 0 50 0;
#X connect 59 0 50 0;
#X connect 62 0 50 0;
#X connect 63 0 29 0;
#X connect 64 0 63 0;
#X connect 65 0 64 0;
#X connect 68 0 67 0;
#X connect 69 0 68 0;
#X connect 70 0 68 0;
#X connect 71 0 69 0;
#X connect 73 0 70 0;
#X connect 74 0 28 0;
#X connect 75 0 76 0;
#X connect 76 0 74 0;
#X connect 76 0 77 0;
#X connect 77 0 78 0;
#X connect 78 0 79 0;
#X connect 78 1 81 0;
#X connect 78 2 80 0;
#X connect 79 0 91 0;
#X connect 80 0 93 0;
#X connect 81 0 92 0;
#X connect 85 0 83 0;
#X connect 86 0 82 0;
#X connect 87 0 84 0;
#X connect 88 0 87 0;
#X connect 89 0 85 0;
#X connect 90 0 86 0;
#X connect 91 0 90 0;
#X connect 92 0 89 0;
#X connect 93 0 88 0;
#X connect 94 0 56 0;
#X connect 95 0 72 0;
